M48
;Layer_Color=9474304
;FILE_FORMAT=2:5
INCH
;TYPE=PLATED
T01F00S00C0.00787
T02F00S00C0.02598
T03F00S00C0.04000
T04F00S00C0.05079
T05F00S00C0.05197
T06F00S00C0.07874
T07F00S00C0.10827
T08F00S00C0.13780
%
T01
X1237797Y0447245
X1240946
X1244096
X1247246
X1248820Y0450394
X1245671
X1242521
X1239371
X1236222
X1237797Y0453544
X1240946
X1244096
X1247246
X1248820Y0456694
X1245671
X1242521
X1239371
X1236222
X1237797Y0459843
X1240946
X1244096
X1247246
X1248820Y0462993
X1245671
X1242521
X1239371
X1236222
X1237797Y0466142
X1240946
X1244096
X1247246
X1250395
X1253545
X1256694
X1258269Y0462993
X1255120
X1251970
X1250395Y0459843
X1253545
X1256694
X1258269Y0456694
X1255120
X1251970
X1250395Y0453544
X1253545
X1256694
X1258269Y0450394
X1255120
X1251970
X1250395Y0447245
X1253545
X1256694
X1348033
X1351183
X1354332
X1357482
X1360631
X1362206Y0450394
X1359057
X1355907
X1352757
X1349608
X1348033Y0453544
X1351183
X1354332
X1357482
X1360631
X1362206Y0456694
X1359057
X1355907
X1352757
X1349608
X1348033Y0459843
X1351183
X1354332
X1357482
X1360631
X1362206Y0462993
X1359057
X1355907
X1352757
X1349608
X1348033Y0466142
X1351183
X1354332
X1357482
X1360631
X1496065Y0450394
X1499214
X1502364
X1505514
X1508663
X1511813
X1514962
X1518112
X1521262
X1524411
X1522836Y0447245
X1519687
X1516537
X1513388
X1510238
X1507088
X1503939
X1500789
X1497640
X1494490
X1496065Y0444095
X1499214
X1502364
X1505514
X1508663
X1511813
X1514962
X1518112
X1521262
X1524411
X1522836Y0440945
X1519687
X1516537
X1513388
X1510238
X1507088
X1503939
X1500789
X1497640
X1494490
X1496065Y0437796
X1499214
X1502364
X1505514
X1508663
X1511813
X1514962
X1518112
X1521262
X1524411
X1522836Y0434646
X1519687
X1516537
X1513388
X1510238
X1507088
X1503939
X1500789
X1497640
X1494490
X1492915Y0431497
X1496065
X1499214
X1502364
X1505514
X1514962
X1518112
X1521262
X1524411
X1527561
X1489765
X1537010Y0462993
X1540159
X1543309
X1546459
X1549608
X1552758
X1555907
X1557482Y0466142
X1554333
X1551183
X1548033
X1544884
X1541734
X1538585
X1535435
X1680317Y0450394
X1683467
X1686616
X1689766
X1692915
X1696065
X1699215
X1702364
X1705514
X1708663
X1707089Y0447245
X1703939
X1700789
X1697640
X1694490
X1691341
X1688191
X1685041
X1681892
X1683467Y0444095
X1686616
X1689766
X1692915
X1696065
X1699215
X1702364
X1705514
X1708663
Y0437796
X1705514
X1702364
X1699215
X1696065
X1692915
X1689766
X1686616
X1683467
X1680317
X1681892Y0440945
X1685041
X1688191
X1691341
X1694490
X1697640
X1700789
X1703939
Y0434646
X1707089
X1708663Y0431497
X1711813
X1705514
X1702364
X1699215
X1697640Y0434646
X1700789
X1694490
X1691341
X1688191
X1685041
X1681892
X1683467Y0431497
X1686616
X1689766
X1680317
X1677167
X1680317Y0444095
X1719687Y0462993
X1722837
X1725986
X1729136
X1732285
X1735435
X1738585
X1741734
X1743309Y0466142
X1740159
X1737010
X1733860
X1730711
X1727561
X1724412
X1721262
X1866144Y0453544
X1869294
X1872443
X1870868Y0450394
X1874018
X1872443Y0447245
X1869294
X1866144
X1864569Y0450394
X1867719
Y0444095
X1870868
X1874018
X1872443Y0440945
X1869294
X1866144
X1864569Y0444095
Y0437796
X1867719
X1870868
X1874018
X1872443Y0434646
X1869294
X1866144
X1864569Y0431497
X1867719
X1870868
X1874018
X1861419
X1875593Y0434646
X1878742
X1881892
X1885042
X1888191
X1891341
X1889766Y0437796
X1892916
X1891341Y0440945
X1888191
X1885042
X1881892
X1878742
X1875593
X1877168Y0444095
X1880317
X1883467
X1886616
X1889766
X1892916
X1891341Y0447245
X1888191
X1885042
X1881892
X1878742
X1875593
X1877168Y0450394
X1880317
X1883467
X1886616
X1889766
X1892916
X1891341Y0453544
X1888191
X1885042
X1881892
X1878742
X1875593
X1877168Y0437796
X1880317
X1883467
X1886616
Y0431497
X1889766
X1892916
X1896065
X1883467
X1902364Y0462993
X1905514
X1908664
X1911813
X1914963
X1918113
X1921262
X1924412
X1925986Y0466142
X1922837
X1919687
X1916538
X1913388
X1910238
X1907089
X1903939
X1902364Y0469292
X1905514
X1908664
X1911813
X1914963
X1918113
X1921262
X1924412
X1925986Y0472441
X1922837
X1919687
X1916538
X1913388
X1910238
X1907089
X1903939
X1902364Y0475591
X1905514
X1908664
X1911813
X1914963
X1918113
X1921262
X1924412
X1897640Y0478741
X1896065Y0481890
X1899215
X1897640Y0485040
X1864173Y0503740
X1860084Y0501617
X1856594Y0503150
X1741734Y0475591
X1738585
X1735435
X1732285
X1729136
X1725986
X1722837
X1719687
X1721262Y0472441
X1724412
X1727561
X1730711
X1733860
X1737010
X1740159
X1743309
X1741734Y0469292
X1738585
X1735435
X1732285
X1729136
X1725986
X1722837
X1719687
X1714963Y0478741
X1711813
X1713388Y0481890
X1714963Y0485040
X1711813
X1680317Y0500788
X1677167
X1674018
X1555907Y0475591
X1552758
X1549608
X1546459
X1543309
X1540159
X1537010
X1538585Y0472441
X1541734
X1544884
X1548033
X1551183
X1554333
X1557482
X1555907Y0469292
X1552758
X1549608
X1546459
X1543309
X1540159
X1537010
X1535435Y0472441
X1529136Y0478741
X1527561Y0481890
X1530711
X1529136Y0485040
X1494490Y0500788
X1491340
X1488583Y0501083
X1406594Y0566339
X1362206Y0513386
X1359781Y0513484
X1360631Y0510237
X1363781
X1346458Y0475591
X1343309
X1340159
X1338584Y0472441
X1341734
X1344884
X1310238Y0481890
X1307088
X1303938
X1300789
X1297639
X1294490
X1291340
X1288190
X1289765Y0485040
X1292915
X1296064
X1299214
X1302364
X1305513
X1308663
X1311813
X1310238Y0488190
X1307088
X1303938
X1300789
X1297639
X1294490
X1291340
X1288190
X1289765Y0491339
X1292915
X1296064
X1299214
X1302364
X1305513
X1308663
X1311813
X1310238Y0494489
X1307088
X1303938
X1300789
X1297639
X1294490
X1296064Y0497638
X1299214
X1302364
X1305513
X1308663
X1311813
X1310238Y0500788
X1307088
X1303938
X1300789
X1297639
X1294490
X1291340
X1288190
X1289765Y0503938
X1292915
X1296064
X1299214
X1302364
X1305513
X1308663
X1311813
X1310238Y0507087
X1307088
X1303938
X1300789
X1297639
X1294490
X1291340
X1288190
X1289765Y0510237
X1292915
X1291340Y0513386
X1288190
X1289765Y0497638
X1292915
Y0478741
X1289765
X1288190Y0475591
X1291340
X1250395Y0510237
Y0516536
X1247246
X1248820Y0513386
X1247246Y0510237
X1234647Y0478741
X1231497
X1228348
X1225198
X1226773Y0475591
X1229923
X1233072
X1200001Y0481890
X1196852
X1193702
X1190553
X1187403
X1184253
X1181104
X1177954
X1179529Y0485040
X1182679
X1185828
X1188978
X1192127
X1195277
X1198427
X1196852Y0488190
X1200001
X1198427Y0491339
X1195277
X1192127
X1188978
X1185828
X1182679
X1179529
X1177954Y0488190
X1181104
X1184253
X1187403
X1190553
X1193702
Y0494489
X1196852
X1200001
X1198427Y0497638
X1195277
X1192127
X1188978
X1185828
X1182679
X1181104Y0500788
X1184253
X1187403
X1190553
X1193702
X1196852
X1200001
X1198427Y0503938
X1195277
X1192127
X1188978
X1185828
X1182679
X1179529
X1177954Y0507087
X1181104
X1184253
X1187403
X1190553
X1193702
X1196852
X1200001
X1198427Y0510237
X1195277
X1192127
X1188978
X1185828
X1182679
X1179529
X1177954Y0513386
Y0500788
X1181104Y0494489
X1184253
X1187403
X1190553
X1179529Y0478741
X1177954Y0475591
X1377953Y0694882
X1396752Y0735039
X1411902Y0688378
X1573100Y0683700
X1590932Y0691732
X1570707Y0723400
X1604000Y0626772
X1746300Y0629100
X1773031Y0702165
X1775800Y0750700
X1782699Y0808300
T02
X1408386Y0464567
X1418386
X1918504Y0556516
Y0566516
Y0623445
X1734449
Y0566516
Y0556516
X1550197Y0555532
Y0565532
Y0622461
X1418386Y0492126
X1408386
Y0478346
X1418386
X1550197Y0632461
Y0687421
Y0697421
Y0752382
Y0762382
X1734449Y0763366
Y0753366
Y0698406
Y0688406
Y0633445
X1918504
Y0688406
Y0698406
Y0753366
Y0763366
Y0818327
Y0828327
X1734449
Y0818327
X1550197Y0817343
Y0827343
T03
X1334539Y0605433
X1344539
Y0615433
X1334539
Y0625433
X1344539
Y0635433
Y0645433
Y0655433
Y0665433
Y0675433
Y0685433
Y0695433
Y0705433
Y0715433
Y0725433
Y0735433
Y0745433
Y0755433
Y0765433
Y0775433
X1334539
Y0765433
Y0755433
Y0745433
Y0735433
Y0725433
Y0715433
Y0705433
Y0695433
Y0685433
Y0675433
Y0665433
Y0655433
Y0645433
Y0635433
Y0785433
X1344539
Y0795433
X1334539
X1320433Y0809449
Y0819449
X1310433
Y0809449
T04
X1832480Y0559055
X1648425
X1464173
Y0625984
Y0690945
Y0755906
X1648425
Y0690945
Y0625984
X1832480
Y0690945
Y0755906
Y0820866
X1648425
X1464173
T05
X1888386Y0535433
Y0582677
Y0602362
X1840354
Y0582677
Y0535433
X1704331
Y0582677
Y0602362
X1656299
Y0582677
Y0535433
X1520079
Y0582677
Y0602362
X1472047
Y0582677
Y0535433
Y0649606
Y0667323
Y0714567
Y0732284
Y0779528
X1520079
Y0732284
Y0714567
Y0667323
Y0649606
X1656299
Y0667323
Y0714567
Y0732284
Y0779528
X1704331
Y0732284
Y0714567
Y0667323
Y0649606
X1840354
Y0667323
Y0714567
Y0732284
Y0779528
X1888386
Y0732284
Y0714567
Y0667323
Y0649606
Y0797244
Y0844488
X1840354
Y0797244
X1704331
Y0844488
X1656299
Y0797244
X1520079
Y0844488
X1472047
Y0797244
T06
X1406299Y0445669
X1424409
T07
X1339539Y0586260
X1146626
X1339539Y0814606
X1146626
T08
X1157874Y0413780
X1589665Y0413878
X1964961Y0413780
Y0846850
X1589665
X1157874
M30
