G04*
G04 #@! TF.GenerationSoftware,Altium Limited,Altium Designer,24.0.1 (36)*
G04*
G04 Layer_Physical_Order=3*
G04 Layer_Color=6736896*
%FSLAX25Y25*%
%MOIN*%
G70*
G04*
G04 #@! TF.SameCoordinates,6F695E82-0B5E-43C6-9C8D-46E310A5337D*
G04*
G04*
G04 #@! TF.FilePolarity,Positive*
G04*
G01*
G75*
%ADD54C,0.01968*%
%ADD56C,0.23622*%
%ADD57C,0.11811*%
%ADD58C,0.06000*%
%ADD60C,0.24410*%
%ADD61C,0.09843*%
%ADD63C,0.04598*%
%ADD64C,0.07618*%
%ADD65R,0.09843X0.09843*%
%ADD67C,0.01772*%
G36*
X210165Y233762D02*
X209978Y233559D01*
X209810Y233344D01*
X209663Y233117D01*
X209535Y232879D01*
X209428Y232630D01*
X209341Y232369D01*
X209274Y232097D01*
X209226Y231813D01*
X209200Y231518D01*
X209193Y231211D01*
X206223Y234181D01*
X206529Y234188D01*
X206825Y234215D01*
X207108Y234262D01*
X207381Y234329D01*
X207642Y234417D01*
X207891Y234524D01*
X208129Y234651D01*
X208355Y234799D01*
X208570Y234966D01*
X208773Y235154D01*
X210165Y233762D01*
D02*
G37*
G36*
X208773Y367209D02*
X208570Y367396D01*
X208355Y367564D01*
X208129Y367711D01*
X207891Y367839D01*
X207642Y367946D01*
X207381Y368033D01*
X207108Y368100D01*
X206825Y368147D01*
X206529Y368175D01*
X206223Y368181D01*
X209193Y371151D01*
X209200Y370845D01*
X209226Y370549D01*
X209274Y370266D01*
X209341Y369993D01*
X209428Y369732D01*
X209535Y369483D01*
X209663Y369245D01*
X209810Y369019D01*
X209978Y368804D01*
X210165Y368601D01*
X208773Y367209D01*
D02*
G37*
G36*
X220827Y390197D02*
X220550Y390186D01*
X220280Y390152D01*
X220015Y390097D01*
X219757Y390019D01*
X219505Y389918D01*
X219259Y389795D01*
X219019Y389650D01*
X218785Y389483D01*
X218557Y389293D01*
X218335Y389081D01*
Y393281D01*
X218557Y393069D01*
X218785Y392880D01*
X219019Y392712D01*
X219259Y392567D01*
X219505Y392444D01*
X219757Y392344D01*
X220015Y392266D01*
X220280Y392210D01*
X220550Y392177D01*
X220827Y392165D01*
Y390197D01*
D02*
G37*
D54*
X220768Y236221D02*
X249606Y265059D01*
Y310630D01*
X211232Y236221D02*
X220768D01*
X206193Y231181D02*
X211232Y236221D01*
X252461Y207874D02*
Y336313D01*
Y207874D02*
X278248Y182087D01*
X222054Y366720D02*
X252461Y336313D01*
X644685Y317913D02*
X644685D01*
X625820Y336778D02*
X644685Y317913D01*
X277395Y336778D02*
X625820D01*
X216193Y391181D02*
X222992D01*
X277395Y336778D01*
X210653Y366720D02*
X222054D01*
X206193Y371181D02*
X210653Y366720D01*
D56*
X461319Y462598D02*
D03*
Y29626D02*
D03*
X836614Y29528D02*
D03*
Y462598D02*
D03*
X29528D02*
D03*
Y29528D02*
D03*
D57*
X296063Y61417D02*
D03*
X277953D02*
D03*
D58*
X192087Y435197D02*
D03*
Y425197D02*
D03*
X182087Y435197D02*
D03*
Y425197D02*
D03*
X216193Y411181D02*
D03*
Y401181D02*
D03*
Y391181D02*
D03*
Y381181D02*
D03*
Y371181D02*
D03*
Y361181D02*
D03*
X206193Y411181D02*
D03*
Y401181D02*
D03*
Y391181D02*
D03*
Y381181D02*
D03*
Y371181D02*
D03*
Y361181D02*
D03*
X216193Y351181D02*
D03*
X206193D02*
D03*
X216193Y341181D02*
D03*
Y331181D02*
D03*
Y321181D02*
D03*
Y311181D02*
D03*
Y301181D02*
D03*
Y291181D02*
D03*
X206193Y341181D02*
D03*
Y331181D02*
D03*
Y321181D02*
D03*
Y311181D02*
D03*
Y301181D02*
D03*
Y291181D02*
D03*
X216193Y281181D02*
D03*
X206193D02*
D03*
X216193Y271181D02*
D03*
Y261181D02*
D03*
Y251181D02*
D03*
Y241181D02*
D03*
Y231181D02*
D03*
Y221181D02*
D03*
X206193Y271181D02*
D03*
Y261181D02*
D03*
Y251181D02*
D03*
Y241181D02*
D03*
Y231181D02*
D03*
Y221181D02*
D03*
D60*
X211193Y202008D02*
D03*
Y430354D02*
D03*
X18279D02*
D03*
Y202008D02*
D03*
D61*
X343701Y412992D02*
D03*
X575984Y198425D02*
D03*
Y151181D02*
D03*
X527953D02*
D03*
X575984Y460236D02*
D03*
Y412992D02*
D03*
X527953D02*
D03*
X575984Y395276D02*
D03*
Y348032D02*
D03*
X527953D02*
D03*
X575984Y330315D02*
D03*
Y283071D02*
D03*
X527953D02*
D03*
X575984Y265354D02*
D03*
Y218110D02*
D03*
X527953D02*
D03*
X391732Y198425D02*
D03*
Y151181D02*
D03*
X343701D02*
D03*
X391732Y265354D02*
D03*
Y218110D02*
D03*
X343701D02*
D03*
X391732Y330315D02*
D03*
Y283071D02*
D03*
X343701D02*
D03*
X391732Y395276D02*
D03*
Y348032D02*
D03*
X343701D02*
D03*
X391732Y460236D02*
D03*
Y412992D02*
D03*
X712008Y151181D02*
D03*
X760039D02*
D03*
Y198425D02*
D03*
X712008Y218110D02*
D03*
X760039D02*
D03*
Y265354D02*
D03*
X712008Y283071D02*
D03*
X760039D02*
D03*
Y330315D02*
D03*
X712008Y348032D02*
D03*
X760039D02*
D03*
Y395276D02*
D03*
X712008Y412992D02*
D03*
X760039D02*
D03*
Y460236D02*
D03*
D63*
X290039Y94094D02*
D03*
X280039D02*
D03*
X290039Y107874D02*
D03*
X280039D02*
D03*
X606102Y444075D02*
D03*
Y434075D02*
D03*
Y314154D02*
D03*
Y304154D02*
D03*
Y182264D02*
D03*
Y172264D02*
D03*
Y249193D02*
D03*
Y239193D02*
D03*
Y379114D02*
D03*
Y369114D02*
D03*
X790157Y379114D02*
D03*
Y369114D02*
D03*
X421850Y181280D02*
D03*
Y171280D02*
D03*
Y248209D02*
D03*
Y238209D02*
D03*
Y313169D02*
D03*
Y303169D02*
D03*
Y378130D02*
D03*
Y368130D02*
D03*
Y443091D02*
D03*
Y433091D02*
D03*
X290039Y80315D02*
D03*
X280039D02*
D03*
X790157Y172264D02*
D03*
Y182264D02*
D03*
Y239193D02*
D03*
Y249193D02*
D03*
Y304154D02*
D03*
Y314154D02*
D03*
Y434075D02*
D03*
Y444075D02*
D03*
D64*
X520079Y174803D02*
D03*
Y436614D02*
D03*
Y371654D02*
D03*
Y306693D02*
D03*
Y241732D02*
D03*
X335827Y174803D02*
D03*
Y241732D02*
D03*
Y306693D02*
D03*
Y371654D02*
D03*
Y436614D02*
D03*
X704134Y174803D02*
D03*
Y241732D02*
D03*
Y306693D02*
D03*
Y371654D02*
D03*
Y436614D02*
D03*
D65*
X527953Y198425D02*
D03*
Y460236D02*
D03*
Y395276D02*
D03*
Y330315D02*
D03*
Y265354D02*
D03*
X343701Y198425D02*
D03*
Y265354D02*
D03*
Y330315D02*
D03*
Y395276D02*
D03*
Y460236D02*
D03*
X712008Y198425D02*
D03*
Y265354D02*
D03*
Y330315D02*
D03*
Y395276D02*
D03*
Y460236D02*
D03*
D67*
X175592Y97638D02*
D03*
X181891D02*
D03*
X385041Y56693D02*
D03*
X231434Y129232D02*
D03*
X360236Y116831D02*
D03*
X735827Y119488D02*
D03*
X731737Y117365D02*
D03*
X728248Y118898D02*
D03*
X551970Y116536D02*
D03*
X548821D02*
D03*
X545671D02*
D03*
X366143D02*
D03*
X362994D02*
D03*
X122049Y132284D02*
D03*
Y125985D02*
D03*
X118899Y132284D02*
D03*
X120474Y129135D02*
D03*
X118899Y125985D02*
D03*
X235435D02*
D03*
X233860Y129135D02*
D03*
X232285Y125985D02*
D03*
X128348Y81890D02*
D03*
X129923Y78741D02*
D03*
X128348Y75591D02*
D03*
X129923Y72442D02*
D03*
X128348Y69292D02*
D03*
X129923Y66142D02*
D03*
X128348Y62993D02*
D03*
X125198Y81890D02*
D03*
X126773Y78741D02*
D03*
X125198Y75591D02*
D03*
X126773Y72442D02*
D03*
X125198Y69292D02*
D03*
X126773Y66142D02*
D03*
X125198Y62993D02*
D03*
X122049Y81890D02*
D03*
X123624Y78741D02*
D03*
X122049Y75591D02*
D03*
X123624Y72442D02*
D03*
X122049Y69292D02*
D03*
X123624Y66142D02*
D03*
X122049Y62993D02*
D03*
X118899Y81890D02*
D03*
X120474Y78741D02*
D03*
X118899Y75591D02*
D03*
X120474Y72442D02*
D03*
X118899Y69292D02*
D03*
X120474Y66142D02*
D03*
X118899Y62993D02*
D03*
X115750Y81890D02*
D03*
X117324Y78741D02*
D03*
X115750Y75591D02*
D03*
X117324Y72442D02*
D03*
X115750Y69292D02*
D03*
X117324Y66142D02*
D03*
X115750Y62993D02*
D03*
X112600Y81890D02*
D03*
X114175Y78741D02*
D03*
X112600Y75591D02*
D03*
X114175Y72442D02*
D03*
X112600Y69292D02*
D03*
X114175Y66142D02*
D03*
X112600Y62993D02*
D03*
X109450Y81890D02*
D03*
X111025Y78741D02*
D03*
X109450Y75591D02*
D03*
X111025Y72442D02*
D03*
X109450Y69292D02*
D03*
X111025Y66142D02*
D03*
X109450Y62993D02*
D03*
X106301Y94489D02*
D03*
X107876Y78741D02*
D03*
Y72442D02*
D03*
Y66142D02*
D03*
X103151Y94489D02*
D03*
X104726Y91339D02*
D03*
X100001Y94489D02*
D03*
X101576Y91339D02*
D03*
X96852Y94489D02*
D03*
X98427Y91339D02*
D03*
X232285Y81890D02*
D03*
X233860Y78741D02*
D03*
X232285Y75591D02*
D03*
X233860Y72442D02*
D03*
X232285Y69292D02*
D03*
X233860Y66142D02*
D03*
X232285Y62993D02*
D03*
X229135Y81890D02*
D03*
X230710Y78741D02*
D03*
X229135Y75591D02*
D03*
X230710Y72442D02*
D03*
X229135Y69292D02*
D03*
X230710Y66142D02*
D03*
X229135Y62993D02*
D03*
X225986Y81890D02*
D03*
X227561Y78741D02*
D03*
X225986Y75591D02*
D03*
X227561Y72442D02*
D03*
X225986Y69292D02*
D03*
X227561Y66142D02*
D03*
X225986Y62993D02*
D03*
X222836Y81890D02*
D03*
X224411Y78741D02*
D03*
X222836Y75591D02*
D03*
X224411Y72442D02*
D03*
X222836Y69292D02*
D03*
X224411Y66142D02*
D03*
X222836Y62993D02*
D03*
X219687Y81890D02*
D03*
X221261Y78741D02*
D03*
X219687Y75591D02*
D03*
X221261Y72442D02*
D03*
X219687Y69292D02*
D03*
X221261Y66142D02*
D03*
X219687Y62993D02*
D03*
X218112Y91339D02*
D03*
X216537Y88190D02*
D03*
X214962Y91339D02*
D03*
X213387Y88190D02*
D03*
X211813Y91339D02*
D03*
X210238Y88190D02*
D03*
X767719Y47245D02*
D03*
X764569Y66142D02*
D03*
Y59843D02*
D03*
Y53544D02*
D03*
Y47245D02*
D03*
X762994Y69292D02*
D03*
X761419Y66142D02*
D03*
X762994Y62993D02*
D03*
X761419Y59843D02*
D03*
X762994Y56693D02*
D03*
X761419Y53544D02*
D03*
X762994Y50394D02*
D03*
X761419Y47245D02*
D03*
X759845Y69292D02*
D03*
X758270Y66142D02*
D03*
X759845Y62993D02*
D03*
X758270Y59843D02*
D03*
X759845Y56693D02*
D03*
X758270Y53544D02*
D03*
X759845Y50394D02*
D03*
X758270Y47245D02*
D03*
X756695Y69292D02*
D03*
X755120Y66142D02*
D03*
X756695Y62993D02*
D03*
X755120Y59843D02*
D03*
X756695Y56693D02*
D03*
X755120Y53544D02*
D03*
X756695Y50394D02*
D03*
X755120Y47245D02*
D03*
X753546Y69292D02*
D03*
X751971Y66142D02*
D03*
X753546Y62993D02*
D03*
X751971Y59843D02*
D03*
X753546Y56693D02*
D03*
X751971Y53544D02*
D03*
X753546Y50394D02*
D03*
X750396Y69292D02*
D03*
X748821Y66142D02*
D03*
X750396Y62993D02*
D03*
X748821Y59843D02*
D03*
X750396Y56693D02*
D03*
X748821Y53544D02*
D03*
X750396Y50394D02*
D03*
X747246Y69292D02*
D03*
X745672Y66142D02*
D03*
X747246Y62993D02*
D03*
X745672Y59843D02*
D03*
X747246Y56693D02*
D03*
X745672Y53544D02*
D03*
X747246Y50394D02*
D03*
X745672Y47245D02*
D03*
X744097Y69292D02*
D03*
X742522Y66142D02*
D03*
X744097Y62993D02*
D03*
X742522Y59843D02*
D03*
X744097Y56693D02*
D03*
X742522Y53544D02*
D03*
X744097Y50394D02*
D03*
X742522Y47245D02*
D03*
X740947Y69292D02*
D03*
X739372Y66142D02*
D03*
X740947Y62993D02*
D03*
X739372Y59843D02*
D03*
X740947Y56693D02*
D03*
X739372Y53544D02*
D03*
X740947Y50394D02*
D03*
X739372Y47245D02*
D03*
X737797Y69292D02*
D03*
X736223Y66142D02*
D03*
X737797Y62993D02*
D03*
X736223Y59843D02*
D03*
X737797Y56693D02*
D03*
X736223Y53544D02*
D03*
X737797Y50394D02*
D03*
X736223Y47245D02*
D03*
X733073D02*
D03*
X583467D02*
D03*
X580317Y66142D02*
D03*
X578742Y62993D02*
D03*
X580317Y59843D02*
D03*
Y53544D02*
D03*
X578742Y50394D02*
D03*
X580317Y47245D02*
D03*
X577167Y66142D02*
D03*
X575593Y62993D02*
D03*
X577167Y59843D02*
D03*
X575593Y56693D02*
D03*
X577167Y53544D02*
D03*
X575593Y50394D02*
D03*
X577167Y47245D02*
D03*
X574018Y66142D02*
D03*
X572443Y62993D02*
D03*
X574018Y59843D02*
D03*
X572443Y56693D02*
D03*
X574018Y53544D02*
D03*
X572443Y50394D02*
D03*
X574018Y47245D02*
D03*
X570868Y66142D02*
D03*
X569293Y62993D02*
D03*
X570868Y59843D02*
D03*
X569293Y56693D02*
D03*
X570868Y53544D02*
D03*
X569293Y50394D02*
D03*
X570868Y47245D02*
D03*
X567719Y66142D02*
D03*
X566144Y62993D02*
D03*
X567719Y59843D02*
D03*
X566144Y56693D02*
D03*
X567719Y53544D02*
D03*
X566144Y50394D02*
D03*
X564569Y66142D02*
D03*
X562994Y62993D02*
D03*
X564569Y59843D02*
D03*
X562994Y56693D02*
D03*
X564569Y53544D02*
D03*
X562994Y50394D02*
D03*
X561419Y66142D02*
D03*
X559844Y62993D02*
D03*
X561419Y59843D02*
D03*
X559844Y56693D02*
D03*
X561419Y53544D02*
D03*
X559844Y50394D02*
D03*
X561419Y47245D02*
D03*
X558270Y66142D02*
D03*
X556695Y62993D02*
D03*
X558270Y59843D02*
D03*
X556695Y56693D02*
D03*
X558270Y53544D02*
D03*
X556695Y50394D02*
D03*
X558270Y47245D02*
D03*
X555120Y66142D02*
D03*
X553545Y62993D02*
D03*
X555120Y59843D02*
D03*
X553545Y56693D02*
D03*
X555120Y53544D02*
D03*
X553545Y50394D02*
D03*
X555120Y47245D02*
D03*
X551970Y66142D02*
D03*
Y59843D02*
D03*
Y53544D02*
D03*
Y47245D02*
D03*
X548821D02*
D03*
X71655Y122835D02*
D03*
Y116536D02*
D03*
Y110237D02*
D03*
Y103938D02*
D03*
Y97638D02*
D03*
X70080Y125985D02*
D03*
X68505Y122835D02*
D03*
X70080Y119686D02*
D03*
X68505Y116536D02*
D03*
X70080Y113386D02*
D03*
X68505Y110237D02*
D03*
X70080Y107087D02*
D03*
X68505Y103938D02*
D03*
X70080Y100788D02*
D03*
X68505Y97638D02*
D03*
X66931Y125985D02*
D03*
X65356Y122835D02*
D03*
X66931Y119686D02*
D03*
X65356Y116536D02*
D03*
X66931Y113386D02*
D03*
X65356Y110237D02*
D03*
X66931Y107087D02*
D03*
X65356Y103938D02*
D03*
X66931Y100788D02*
D03*
X65356Y97638D02*
D03*
X63781Y125985D02*
D03*
X62206Y122835D02*
D03*
X63781Y119686D02*
D03*
X62206Y116536D02*
D03*
X63781Y113386D02*
D03*
X62206Y110237D02*
D03*
X63781Y107087D02*
D03*
X62206Y103938D02*
D03*
X63781Y100788D02*
D03*
X62206Y97638D02*
D03*
X60631Y125985D02*
D03*
X59057Y122835D02*
D03*
X60631Y119686D02*
D03*
X59057Y116536D02*
D03*
X60631Y113386D02*
D03*
X59057Y110237D02*
D03*
X60631Y107087D02*
D03*
X59057Y103938D02*
D03*
X60631Y100788D02*
D03*
X59057Y97638D02*
D03*
X57482Y125985D02*
D03*
X55907Y122835D02*
D03*
X57482Y119686D02*
D03*
X55907Y116536D02*
D03*
X57482Y113386D02*
D03*
X55907Y110237D02*
D03*
X57482Y107087D02*
D03*
X55907Y103938D02*
D03*
X57482Y100788D02*
D03*
X55907Y97638D02*
D03*
X54332Y125985D02*
D03*
X52757Y122835D02*
D03*
X54332Y119686D02*
D03*
X52757Y116536D02*
D03*
X54332Y113386D02*
D03*
X52757Y110237D02*
D03*
X54332Y107087D02*
D03*
X52757Y103938D02*
D03*
X54332Y100788D02*
D03*
X52757Y97638D02*
D03*
X49608Y129135D02*
D03*
X51183Y125985D02*
D03*
X49608Y122835D02*
D03*
X51183Y119686D02*
D03*
X49608Y116536D02*
D03*
X51183Y107087D02*
D03*
X49608Y103938D02*
D03*
X51183Y100788D02*
D03*
X49608Y97638D02*
D03*
X51183Y94489D02*
D03*
X49608Y91339D02*
D03*
X181891Y122835D02*
D03*
X183466Y119686D02*
D03*
X181891Y116536D02*
D03*
X183466Y113386D02*
D03*
X181891Y110237D02*
D03*
X183466Y107087D02*
D03*
X181891Y103938D02*
D03*
X183466Y100788D02*
D03*
X178742Y122835D02*
D03*
X180316Y119686D02*
D03*
X178742Y116536D02*
D03*
X180316Y113386D02*
D03*
X178742Y110237D02*
D03*
X180316Y107087D02*
D03*
X178742Y103938D02*
D03*
X180316Y100788D02*
D03*
X178742Y97638D02*
D03*
X175592Y122835D02*
D03*
X177167Y119686D02*
D03*
X175592Y116536D02*
D03*
X177167Y113386D02*
D03*
X175592Y110237D02*
D03*
X177167Y107087D02*
D03*
X175592Y103938D02*
D03*
X177167Y100788D02*
D03*
X172442Y122835D02*
D03*
X174017Y119686D02*
D03*
X172442Y116536D02*
D03*
X174017Y113386D02*
D03*
X172442Y110237D02*
D03*
X174017Y107087D02*
D03*
X172442Y103938D02*
D03*
X174017Y100788D02*
D03*
X172442Y97638D02*
D03*
X169293Y122835D02*
D03*
X170868Y119686D02*
D03*
X169293Y116536D02*
D03*
X170868Y113386D02*
D03*
X169293Y110237D02*
D03*
X170868Y107087D02*
D03*
X169293Y103938D02*
D03*
X170868Y100788D02*
D03*
X169293Y97638D02*
D03*
X166143Y122835D02*
D03*
X167718Y119686D02*
D03*
X166143Y116536D02*
D03*
X167718Y113386D02*
D03*
X166143Y110237D02*
D03*
X167718Y107087D02*
D03*
X166143Y103938D02*
D03*
X167718Y100788D02*
D03*
X166143Y97638D02*
D03*
X162994Y129135D02*
D03*
X164568Y125985D02*
D03*
X162994Y122835D02*
D03*
X164568Y119686D02*
D03*
X162994Y116536D02*
D03*
X164568Y113386D02*
D03*
Y107087D02*
D03*
X162994Y103938D02*
D03*
X164568Y100788D02*
D03*
X162994Y97638D02*
D03*
X164568Y94489D02*
D03*
X162994Y91339D02*
D03*
X159844Y129135D02*
D03*
X161419Y125985D02*
D03*
X159844Y122835D02*
D03*
X161419Y119686D02*
D03*
X159844Y116536D02*
D03*
X161419Y113386D02*
D03*
Y107087D02*
D03*
X159844Y103938D02*
D03*
X161419Y100788D02*
D03*
X159844Y97638D02*
D03*
X161419Y94489D02*
D03*
X159844Y91339D02*
D03*
X399214Y47245D02*
D03*
X396065Y66142D02*
D03*
Y59843D02*
D03*
Y53544D02*
D03*
Y47245D02*
D03*
X392915Y66142D02*
D03*
X394490Y62993D02*
D03*
X392915Y59843D02*
D03*
X394490Y56693D02*
D03*
X392915Y53544D02*
D03*
X394490Y50394D02*
D03*
X392915Y47245D02*
D03*
X389766Y66142D02*
D03*
X391340Y62993D02*
D03*
X389766Y59843D02*
D03*
X391340Y56693D02*
D03*
X389766Y53544D02*
D03*
X391340Y50394D02*
D03*
X389766Y47245D02*
D03*
X386616Y66142D02*
D03*
X388191Y62993D02*
D03*
X386616Y59843D02*
D03*
X388191Y56693D02*
D03*
X386616Y53544D02*
D03*
X388191Y50394D02*
D03*
X386616Y47245D02*
D03*
X383466Y66142D02*
D03*
X385041Y62993D02*
D03*
X383466Y59843D02*
D03*
Y53544D02*
D03*
X385041Y50394D02*
D03*
X380317Y66142D02*
D03*
X381891Y62993D02*
D03*
X380317Y59843D02*
D03*
X381891Y56693D02*
D03*
X380317Y53544D02*
D03*
X381891Y50394D02*
D03*
X377167Y66142D02*
D03*
X378742Y62993D02*
D03*
X377167Y59843D02*
D03*
X378742Y56693D02*
D03*
X377167Y53544D02*
D03*
X378742Y50394D02*
D03*
X377167Y47245D02*
D03*
X374018Y66142D02*
D03*
X375592Y62993D02*
D03*
X374018Y59843D02*
D03*
X375592Y56693D02*
D03*
X374018Y53544D02*
D03*
X375592Y50394D02*
D03*
X374018Y47245D02*
D03*
X370868Y66142D02*
D03*
X372443Y62993D02*
D03*
X370868Y59843D02*
D03*
X372443Y56693D02*
D03*
X370868Y53544D02*
D03*
X372443Y50394D02*
D03*
X370868Y47245D02*
D03*
X367718Y66142D02*
D03*
X369293Y62993D02*
D03*
X367718Y59843D02*
D03*
X369293Y56693D02*
D03*
X367718Y53544D02*
D03*
X369293Y50394D02*
D03*
X367718Y47245D02*
D03*
X366143Y62993D02*
D03*
Y56693D02*
D03*
Y50394D02*
D03*
X364569Y47245D02*
D03*
X361419D02*
D03*
X796065Y91339D02*
D03*
X797640Y88190D02*
D03*
X796065Y85040D02*
D03*
X797640Y81890D02*
D03*
X796065Y78741D02*
D03*
X792916Y91339D02*
D03*
X794490Y88190D02*
D03*
X792916Y85040D02*
D03*
X794490Y81890D02*
D03*
X792916Y78741D02*
D03*
X789766Y91339D02*
D03*
X791341Y88190D02*
D03*
X789766Y85040D02*
D03*
X791341Y81890D02*
D03*
X789766Y78741D02*
D03*
X786616Y91339D02*
D03*
X788191Y88190D02*
D03*
X786616Y85040D02*
D03*
X788191Y81890D02*
D03*
X786616Y78741D02*
D03*
X783467Y91339D02*
D03*
X785042Y88190D02*
D03*
X783467Y85040D02*
D03*
X785042Y81890D02*
D03*
X783467Y78741D02*
D03*
X780317Y91339D02*
D03*
X781892Y88190D02*
D03*
X780317Y85040D02*
D03*
X781892Y81890D02*
D03*
X780317Y78741D02*
D03*
X777168Y91339D02*
D03*
X778742Y88190D02*
D03*
X777168Y85040D02*
D03*
X778742Y81890D02*
D03*
X777168Y78741D02*
D03*
X774018Y91339D02*
D03*
X775593Y88190D02*
D03*
X774018Y85040D02*
D03*
X775593Y81890D02*
D03*
X774018Y78741D02*
D03*
X770868Y97638D02*
D03*
X769294Y100788D02*
D03*
X767719Y97638D02*
D03*
X769294Y94489D02*
D03*
X613388Y91339D02*
D03*
X614963Y88190D02*
D03*
X613388Y85040D02*
D03*
X614963Y81890D02*
D03*
X613388Y78741D02*
D03*
X610238Y91339D02*
D03*
X611813Y88190D02*
D03*
X610238Y85040D02*
D03*
X611813Y81890D02*
D03*
X610238Y78741D02*
D03*
X607089Y91339D02*
D03*
X608664Y88190D02*
D03*
X607089Y85040D02*
D03*
X608664Y81890D02*
D03*
X607089Y78741D02*
D03*
X603939Y91339D02*
D03*
X605514Y88190D02*
D03*
X603939Y85040D02*
D03*
X605514Y81890D02*
D03*
X603939Y78741D02*
D03*
X600789Y91339D02*
D03*
X602364Y88190D02*
D03*
X600789Y85040D02*
D03*
X602364Y81890D02*
D03*
X600789Y78741D02*
D03*
X597640Y91339D02*
D03*
X599215Y88190D02*
D03*
X597640Y85040D02*
D03*
X599215Y81890D02*
D03*
X597640Y78741D02*
D03*
X594490Y91339D02*
D03*
X596065Y88190D02*
D03*
X594490Y85040D02*
D03*
X596065Y81890D02*
D03*
X594490Y78741D02*
D03*
X591341Y91339D02*
D03*
X592915Y88190D02*
D03*
X591341Y85040D02*
D03*
X592915Y81890D02*
D03*
X591341Y78741D02*
D03*
X586616Y100788D02*
D03*
X585041Y97638D02*
D03*
X586616Y94489D02*
D03*
X583467Y100788D02*
D03*
Y94489D02*
D03*
X427561Y91339D02*
D03*
X429136Y88190D02*
D03*
X427561Y85040D02*
D03*
X429136Y81890D02*
D03*
X427561Y78741D02*
D03*
X424411Y91339D02*
D03*
X425986Y88190D02*
D03*
X424411Y85040D02*
D03*
X425986Y81890D02*
D03*
X424411Y78741D02*
D03*
X421262Y91339D02*
D03*
X422836Y88190D02*
D03*
X421262Y85040D02*
D03*
X422836Y81890D02*
D03*
X421262Y78741D02*
D03*
X418112Y91339D02*
D03*
X419687Y88190D02*
D03*
X418112Y85040D02*
D03*
X419687Y81890D02*
D03*
X418112Y78741D02*
D03*
X414962Y91339D02*
D03*
X416537Y88190D02*
D03*
X414962Y85040D02*
D03*
X416537Y81890D02*
D03*
X414962Y78741D02*
D03*
X411813Y91339D02*
D03*
X413388Y88190D02*
D03*
X411813Y85040D02*
D03*
X413388Y81890D02*
D03*
X411813Y78741D02*
D03*
X408663Y91339D02*
D03*
X410238Y88190D02*
D03*
X408663Y85040D02*
D03*
X410238Y81890D02*
D03*
X408663Y78741D02*
D03*
X407088Y88190D02*
D03*
Y81890D02*
D03*
X402364Y97638D02*
D03*
X400789Y100788D02*
D03*
X399214Y97638D02*
D03*
X400789Y94489D02*
D03*
X283555Y304126D02*
D03*
X268406Y350787D02*
D03*
X249606Y310630D02*
D03*
X278248Y182087D02*
D03*
X644685Y317913D02*
D03*
X617953Y244848D02*
D03*
X442360Y339148D02*
D03*
X647453Y366448D02*
D03*
X654353Y424048D02*
D03*
X462586Y307480D02*
D03*
X444754Y299448D02*
D03*
X475654Y242520D02*
D03*
M02*
