G04*
G04 #@! TF.GenerationSoftware,Altium Limited,Altium Designer,24.0.1 (36)*
G04*
G04 Layer_Color=8421504*
%FSLAX25Y25*%
%MOIN*%
G70*
G04*
G04 #@! TF.SameCoordinates,6F695E82-0B5E-43C6-9C8D-46E310A5337D*
G04*
G04*
G04 #@! TF.FilePolarity,Positive*
G04*
G01*
G75*
%ADD14R,0.07874X0.03150*%
%ADD15R,0.03150X0.07874*%
%ADD16R,0.09252X0.20079*%
%ADD17R,0.09843X0.25591*%
G04:AMPARAMS|DCode=18|XSize=44.88mil|YSize=64.17mil|CornerRadius=5.61mil|HoleSize=0mil|Usage=FLASHONLY|Rotation=270.000|XOffset=0mil|YOffset=0mil|HoleType=Round|Shape=RoundedRectangle|*
%AMROUNDEDRECTD18*
21,1,0.04488,0.05295,0,0,270.0*
21,1,0.03366,0.06417,0,0,270.0*
1,1,0.01122,-0.02648,-0.01683*
1,1,0.01122,-0.02648,0.01683*
1,1,0.01122,0.02648,0.01683*
1,1,0.01122,0.02648,-0.01683*
%
%ADD18ROUNDEDRECTD18*%
%ADD19R,0.08504X0.04213*%
G04:AMPARAMS|DCode=20|XSize=157.09mil|YSize=83.46mil|CornerRadius=10.43mil|HoleSize=0mil|Usage=FLASHONLY|Rotation=180.000|XOffset=0mil|YOffset=0mil|HoleType=Round|Shape=RoundedRectangle|*
%AMROUNDEDRECTD20*
21,1,0.15709,0.06260,0,0,180.0*
21,1,0.13622,0.08346,0,0,180.0*
1,1,0.02087,-0.06811,0.03130*
1,1,0.02087,0.06811,0.03130*
1,1,0.02087,0.06811,-0.03130*
1,1,0.02087,-0.06811,-0.03130*
%
%ADD20ROUNDEDRECTD20*%
%ADD21R,0.04213X0.08504*%
%ADD22R,0.20079X0.09252*%
%ADD23R,0.25591X0.09843*%
G04:AMPARAMS|DCode=24|XSize=157.09mil|YSize=83.46mil|CornerRadius=10.43mil|HoleSize=0mil|Usage=FLASHONLY|Rotation=270.000|XOffset=0mil|YOffset=0mil|HoleType=Round|Shape=RoundedRectangle|*
%AMROUNDEDRECTD24*
21,1,0.15709,0.06260,0,0,270.0*
21,1,0.13622,0.08346,0,0,270.0*
1,1,0.02087,-0.03130,-0.06811*
1,1,0.02087,-0.03130,0.06811*
1,1,0.02087,0.03130,0.06811*
1,1,0.02087,0.03130,-0.06811*
%
%ADD24ROUNDEDRECTD24*%
G04:AMPARAMS|DCode=25|XSize=44.88mil|YSize=64.17mil|CornerRadius=5.61mil|HoleSize=0mil|Usage=FLASHONLY|Rotation=0.000|XOffset=0mil|YOffset=0mil|HoleType=Round|Shape=RoundedRectangle|*
%AMROUNDEDRECTD25*
21,1,0.04488,0.05295,0,0,0.0*
21,1,0.03366,0.06417,0,0,0.0*
1,1,0.01122,0.01683,-0.02648*
1,1,0.01122,-0.01683,-0.02648*
1,1,0.01122,-0.01683,0.02648*
1,1,0.01122,0.01683,0.02648*
%
%ADD25ROUNDEDRECTD25*%
G04:AMPARAMS|DCode=26|XSize=51.97mil|YSize=23.62mil|CornerRadius=2.95mil|HoleSize=0mil|Usage=FLASHONLY|Rotation=90.000|XOffset=0mil|YOffset=0mil|HoleType=Round|Shape=RoundedRectangle|*
%AMROUNDEDRECTD26*
21,1,0.05197,0.01772,0,0,90.0*
21,1,0.04606,0.02362,0,0,90.0*
1,1,0.00591,0.00886,0.02303*
1,1,0.00591,0.00886,-0.02303*
1,1,0.00591,-0.00886,-0.02303*
1,1,0.00591,-0.00886,0.02303*
%
%ADD26ROUNDEDRECTD26*%
G36*
X51949Y127689D02*
X48602D01*
Y132492D01*
X51949D01*
Y127689D01*
D02*
G37*
G36*
X163799Y126043D02*
X160453D01*
Y130847D01*
X163799D01*
Y126043D01*
D02*
G37*
G36*
X51949Y122374D02*
X48602D01*
Y127177D01*
X51949D01*
Y122374D01*
D02*
G37*
G36*
X71791Y120799D02*
X66280D01*
Y126744D01*
X71791D01*
Y120799D01*
D02*
G37*
G36*
X61791D02*
X56279D01*
Y126744D01*
X61791D01*
Y120799D01*
D02*
G37*
G36*
X163799Y120728D02*
X160453D01*
Y125531D01*
X163799D01*
Y120728D01*
D02*
G37*
G36*
X183642Y119153D02*
X178130D01*
Y125098D01*
X183642D01*
Y119153D01*
D02*
G37*
G36*
X173642D02*
X168130D01*
Y125098D01*
X173642D01*
Y119153D01*
D02*
G37*
G36*
X51949Y117059D02*
X48602D01*
Y121862D01*
X51949D01*
Y117059D01*
D02*
G37*
G36*
X163799Y115413D02*
X160453D01*
Y120217D01*
X163799D01*
Y115413D01*
D02*
G37*
G36*
X71791Y112610D02*
X66280D01*
Y118555D01*
X71791D01*
Y112610D01*
D02*
G37*
G36*
X61791D02*
X56279D01*
Y118555D01*
X61791D01*
Y112610D01*
D02*
G37*
G36*
X51949Y111744D02*
X48602D01*
Y116547D01*
X51949D01*
Y111744D01*
D02*
G37*
G36*
X183642Y110965D02*
X178130D01*
Y116910D01*
X183642D01*
Y110965D01*
D02*
G37*
G36*
X173642D02*
X168130D01*
Y116910D01*
X173642D01*
Y110965D01*
D02*
G37*
G36*
X163799Y110098D02*
X160453D01*
Y114902D01*
X163799D01*
Y110098D01*
D02*
G37*
G36*
X51949Y106429D02*
X48602D01*
Y111232D01*
X51949D01*
Y106429D01*
D02*
G37*
G36*
X163799Y104783D02*
X160453D01*
Y109587D01*
X163799D01*
Y104783D01*
D02*
G37*
G36*
X71791Y104421D02*
X66280D01*
Y110366D01*
X71791D01*
Y104421D01*
D02*
G37*
G36*
X61791D02*
X56279D01*
Y110366D01*
X61791D01*
Y104421D01*
D02*
G37*
G36*
X183642Y102776D02*
X178130D01*
Y108721D01*
X183642D01*
Y102776D01*
D02*
G37*
G36*
X173642D02*
X168130D01*
Y108721D01*
X173642D01*
Y102776D01*
D02*
G37*
G36*
X51949Y101114D02*
X48602D01*
Y105917D01*
X51949D01*
Y101114D01*
D02*
G37*
G36*
X163799Y99468D02*
X160453D01*
Y104272D01*
X163799D01*
Y99468D01*
D02*
G37*
G36*
X71791Y96232D02*
X66280D01*
Y102177D01*
X71791D01*
Y96232D01*
D02*
G37*
G36*
X61791D02*
X56279D01*
Y102177D01*
X61791D01*
Y96232D01*
D02*
G37*
G36*
X51949Y95799D02*
X48602D01*
Y100602D01*
X51949D01*
Y95799D01*
D02*
G37*
G36*
X183642Y94587D02*
X178130D01*
Y100531D01*
X183642D01*
Y94587D01*
D02*
G37*
G36*
X173642D02*
X168130D01*
Y100531D01*
X173642D01*
Y94587D01*
D02*
G37*
G36*
X163799Y94153D02*
X160453D01*
Y98957D01*
X163799D01*
Y94153D01*
D02*
G37*
G36*
X51949Y90484D02*
X48602D01*
Y95287D01*
X51949D01*
Y90484D01*
D02*
G37*
G36*
X163799Y88839D02*
X160453D01*
Y93642D01*
X163799D01*
Y88839D01*
D02*
G37*
G36*
X380374Y62992D02*
X374429D01*
Y68504D01*
X380374D01*
Y62992D01*
D02*
G37*
G36*
X372185D02*
X366240D01*
Y68504D01*
X372185D01*
Y62992D01*
D02*
G37*
G36*
X380374Y52992D02*
X374429D01*
Y58504D01*
X380374D01*
Y52992D01*
D02*
G37*
G36*
X372185D02*
X366240D01*
Y58504D01*
X372185D01*
Y52992D01*
D02*
G37*
G36*
X381240Y45315D02*
X376437D01*
Y48661D01*
X381240D01*
Y45315D01*
D02*
G37*
G36*
X375925D02*
X371122D01*
Y48661D01*
X375925D01*
Y45315D01*
D02*
G37*
G36*
X370610D02*
X365807D01*
Y48661D01*
X370610D01*
Y45315D01*
D02*
G37*
G36*
X365295D02*
X360492D01*
Y48661D01*
X365295D01*
Y45315D01*
D02*
G37*
G36*
X765059Y63169D02*
X759114D01*
Y68681D01*
X765059D01*
Y63169D01*
D02*
G37*
G36*
X756870D02*
X750925D01*
Y68681D01*
X756870D01*
Y63169D01*
D02*
G37*
G36*
X748681D02*
X742736D01*
Y68681D01*
X748681D01*
Y63169D01*
D02*
G37*
G36*
X740492D02*
X734547D01*
Y68681D01*
X740492D01*
Y63169D01*
D02*
G37*
G36*
X396752Y62992D02*
X390807D01*
Y68504D01*
X396752D01*
Y62992D01*
D02*
G37*
G36*
X388563D02*
X382618D01*
Y68504D01*
X388563D01*
Y62992D01*
D02*
G37*
G36*
X581047Y62638D02*
X575102D01*
Y68150D01*
X581047D01*
Y62638D01*
D02*
G37*
G36*
X572858D02*
X566913D01*
Y68150D01*
X572858D01*
Y62638D01*
D02*
G37*
G36*
X564669D02*
X558724D01*
Y68150D01*
X564669D01*
Y62638D01*
D02*
G37*
G36*
X556480D02*
X550535D01*
Y68150D01*
X556480D01*
Y62638D01*
D02*
G37*
G36*
X765059Y53169D02*
X759114D01*
Y58681D01*
X765059D01*
Y53169D01*
D02*
G37*
G36*
X756870D02*
X750925D01*
Y58681D01*
X756870D01*
Y53169D01*
D02*
G37*
G36*
X748681D02*
X742736D01*
Y58681D01*
X748681D01*
Y53169D01*
D02*
G37*
G36*
X740492D02*
X734547D01*
Y58681D01*
X740492D01*
Y53169D01*
D02*
G37*
G36*
X396752Y52992D02*
X390807D01*
Y58504D01*
X396752D01*
Y52992D01*
D02*
G37*
G36*
X388563D02*
X382618D01*
Y58504D01*
X388563D01*
Y52992D01*
D02*
G37*
G36*
X581047Y52638D02*
X575102D01*
Y58150D01*
X581047D01*
Y52638D01*
D02*
G37*
G36*
X572858D02*
X566913D01*
Y58150D01*
X572858D01*
Y52638D01*
D02*
G37*
G36*
X564669D02*
X558724D01*
Y58150D01*
X564669D01*
Y52638D01*
D02*
G37*
G36*
X556480D02*
X550535D01*
Y58150D01*
X556480D01*
Y52638D01*
D02*
G37*
G36*
X770807Y45492D02*
X766004D01*
Y48839D01*
X770807D01*
Y45492D01*
D02*
G37*
G36*
X765492D02*
X760689D01*
Y48839D01*
X765492D01*
Y45492D01*
D02*
G37*
G36*
X760177D02*
X755374D01*
Y48839D01*
X760177D01*
Y45492D01*
D02*
G37*
G36*
X754862D02*
X750059D01*
Y48839D01*
X754862D01*
Y45492D01*
D02*
G37*
G36*
X749547D02*
X744744D01*
Y48839D01*
X749547D01*
Y45492D01*
D02*
G37*
G36*
X744232D02*
X739429D01*
Y48839D01*
X744232D01*
Y45492D01*
D02*
G37*
G36*
X738917D02*
X734114D01*
Y48839D01*
X738917D01*
Y45492D01*
D02*
G37*
G36*
X733602D02*
X728799D01*
Y48839D01*
X733602D01*
Y45492D01*
D02*
G37*
G36*
X402500Y45315D02*
X397697D01*
Y48661D01*
X402500D01*
Y45315D01*
D02*
G37*
G36*
X397185D02*
X392382D01*
Y48661D01*
X397185D01*
Y45315D01*
D02*
G37*
G36*
X391870D02*
X387067D01*
Y48661D01*
X391870D01*
Y45315D01*
D02*
G37*
G36*
X386555D02*
X381752D01*
Y48661D01*
X386555D01*
Y45315D01*
D02*
G37*
G36*
X586795Y44961D02*
X581992D01*
Y48307D01*
X586795D01*
Y44961D01*
D02*
G37*
G36*
X581480D02*
X576677D01*
Y48307D01*
X581480D01*
Y44961D01*
D02*
G37*
G36*
X576165D02*
X571362D01*
Y48307D01*
X576165D01*
Y44961D01*
D02*
G37*
G36*
X570850D02*
X566047D01*
Y48307D01*
X570850D01*
Y44961D01*
D02*
G37*
G36*
X565535D02*
X560732D01*
Y48307D01*
X565535D01*
Y44961D01*
D02*
G37*
G36*
X560220D02*
X555417D01*
Y48307D01*
X560220D01*
Y44961D01*
D02*
G37*
G36*
X554906D02*
X550102D01*
Y48307D01*
X554906D01*
Y44961D01*
D02*
G37*
G36*
X549590D02*
X544787D01*
Y48307D01*
X549590D01*
Y44961D01*
D02*
G37*
D14*
X732087Y108071D02*
D03*
Y113583D02*
D03*
X548032Y112599D02*
D03*
Y107087D02*
D03*
X363779Y112598D02*
D03*
Y107087D02*
D03*
X300787Y170079D02*
D03*
Y175591D02*
D03*
X537205Y107087D02*
D03*
Y112599D02*
D03*
X558858Y107087D02*
D03*
Y112599D02*
D03*
X486024Y307480D02*
D03*
Y301968D02*
D03*
Y175591D02*
D03*
Y170079D02*
D03*
Y242520D02*
D03*
Y237008D02*
D03*
Y434449D02*
D03*
Y428937D02*
D03*
Y372441D02*
D03*
Y366929D02*
D03*
X352953Y107087D02*
D03*
Y112598D02*
D03*
X300787Y242520D02*
D03*
Y237008D02*
D03*
Y307480D02*
D03*
Y301968D02*
D03*
Y372441D02*
D03*
Y366929D02*
D03*
Y437402D02*
D03*
Y431890D02*
D03*
X374606Y112598D02*
D03*
Y107087D02*
D03*
X670079Y170079D02*
D03*
Y175591D02*
D03*
Y237008D02*
D03*
Y242520D02*
D03*
Y301968D02*
D03*
Y307480D02*
D03*
Y366929D02*
D03*
Y372441D02*
D03*
Y428937D02*
D03*
Y434449D02*
D03*
X721260Y113583D02*
D03*
Y108071D02*
D03*
X742913D02*
D03*
Y113583D02*
D03*
D15*
X110374Y128417D02*
D03*
X115886D02*
D03*
X223031Y127559D02*
D03*
X228543D02*
D03*
Y116732D02*
D03*
X223031D02*
D03*
Y138386D02*
D03*
X228543D02*
D03*
X115886Y117591D02*
D03*
X110374D02*
D03*
Y139244D02*
D03*
X115886D02*
D03*
D16*
X235335Y98032D02*
D03*
X251673D02*
D03*
X123661Y98890D02*
D03*
X140000D02*
D03*
D17*
X212992Y24213D02*
D03*
Y73425D02*
D03*
X101319Y74283D02*
D03*
Y25071D02*
D03*
D18*
X224803Y103504D02*
D03*
Y90591D02*
D03*
X113130Y104362D02*
D03*
Y91449D02*
D03*
X508661Y301634D02*
D03*
Y314547D02*
D03*
Y169744D02*
D03*
Y182657D02*
D03*
Y236673D02*
D03*
Y249587D02*
D03*
Y428189D02*
D03*
Y441102D02*
D03*
Y366595D02*
D03*
Y379508D02*
D03*
X324410Y169744D02*
D03*
Y182657D02*
D03*
Y236673D02*
D03*
Y249587D02*
D03*
Y301634D02*
D03*
Y314547D02*
D03*
Y366595D02*
D03*
Y379508D02*
D03*
Y431555D02*
D03*
Y444468D02*
D03*
X692717Y182657D02*
D03*
Y169744D02*
D03*
Y249587D02*
D03*
Y236673D02*
D03*
Y314547D02*
D03*
Y301634D02*
D03*
Y379508D02*
D03*
Y366595D02*
D03*
Y441102D02*
D03*
Y428189D02*
D03*
D19*
X214154Y96457D02*
D03*
Y103150D02*
D03*
Y109843D02*
D03*
Y116536D02*
D03*
Y123229D02*
D03*
X102303Y98102D02*
D03*
Y104795D02*
D03*
Y111488D02*
D03*
Y118181D02*
D03*
Y124874D02*
D03*
D20*
X210984Y154134D02*
D03*
X177599D02*
D03*
X98327Y155976D02*
D03*
X64941D02*
D03*
D21*
X763189Y99193D02*
D03*
X756496D02*
D03*
X749803D02*
D03*
X743110D02*
D03*
X736417D02*
D03*
X552406Y98661D02*
D03*
X559098D02*
D03*
X565791D02*
D03*
X572484D02*
D03*
X579177D02*
D03*
X368110Y99016D02*
D03*
X374803D02*
D03*
X381496D02*
D03*
X388189D02*
D03*
X394882D02*
D03*
D22*
X761614Y120374D02*
D03*
Y136713D02*
D03*
X577559Y120374D02*
D03*
Y136713D02*
D03*
X393307Y120374D02*
D03*
Y136713D02*
D03*
D23*
X835433Y98031D02*
D03*
X786221D02*
D03*
X602165D02*
D03*
X651378D02*
D03*
X417913D02*
D03*
X467126D02*
D03*
D24*
X337205Y61654D02*
D03*
Y95039D02*
D03*
X521456Y60669D02*
D03*
Y94055D02*
D03*
X705512Y95039D02*
D03*
Y61654D02*
D03*
D25*
X756142Y109843D02*
D03*
X769055D02*
D03*
X585000D02*
D03*
X572086D02*
D03*
X400748Y109842D02*
D03*
X387835D02*
D03*
D26*
X308858Y170866D02*
D03*
X316338D02*
D03*
X312598Y178740D02*
D03*
X497834Y310630D02*
D03*
X501575Y302756D02*
D03*
X494094D02*
D03*
X497834Y245669D02*
D03*
X501575Y237795D02*
D03*
X494094D02*
D03*
X497834Y178740D02*
D03*
X501575Y170866D02*
D03*
X494094D02*
D03*
X497834Y437598D02*
D03*
X501575Y429724D02*
D03*
X494094D02*
D03*
X497834Y375591D02*
D03*
X501575Y367717D02*
D03*
X494094D02*
D03*
X312598Y245669D02*
D03*
X316338Y237795D02*
D03*
X308858D02*
D03*
X312598Y310630D02*
D03*
X316338Y302756D02*
D03*
X308858D02*
D03*
X312598Y375591D02*
D03*
X316338Y367717D02*
D03*
X308858D02*
D03*
X312598Y440551D02*
D03*
X316338Y432677D02*
D03*
X308858D02*
D03*
X678150Y170866D02*
D03*
X685630D02*
D03*
X681890Y178740D02*
D03*
X678150Y237795D02*
D03*
X685630D02*
D03*
X681890Y245669D02*
D03*
X678150Y302756D02*
D03*
X685630D02*
D03*
X681890Y310630D02*
D03*
X678150Y367717D02*
D03*
X685630D02*
D03*
X681890Y375591D02*
D03*
X678150Y429724D02*
D03*
X685630D02*
D03*
X681890Y437598D02*
D03*
M02*
