G04*
G04 #@! TF.GenerationSoftware,Altium Limited,Altium Designer,24.0.1 (36)*
G04*
G04 Layer_Color=8388736*
%FSLAX25Y25*%
%MOIN*%
G70*
G04*
G04 #@! TF.SameCoordinates,6F695E82-0B5E-43C6-9C8D-46E310A5337D*
G04*
G04*
G04 #@! TF.FilePolarity,Negative*
G04*
G01*
G75*
%ADD27R,0.08465X0.03740*%
%ADD28R,0.03740X0.08465*%
%ADD29R,0.09843X0.20669*%
%ADD30R,0.10433X0.26181*%
G04:AMPARAMS|DCode=31|XSize=50.79mil|YSize=70.08mil|CornerRadius=8.56mil|HoleSize=0mil|Usage=FLASHONLY|Rotation=270.000|XOffset=0mil|YOffset=0mil|HoleType=Round|Shape=RoundedRectangle|*
%AMROUNDEDRECTD31*
21,1,0.05079,0.05295,0,0,270.0*
21,1,0.03366,0.07008,0,0,270.0*
1,1,0.01713,-0.02648,-0.01683*
1,1,0.01713,-0.02648,0.01683*
1,1,0.01713,0.02648,0.01683*
1,1,0.01713,0.02648,-0.01683*
%
%ADD31ROUNDEDRECTD31*%
%ADD32R,0.09095X0.04803*%
G04:AMPARAMS|DCode=33|XSize=162.99mil|YSize=89.37mil|CornerRadius=13.39mil|HoleSize=0mil|Usage=FLASHONLY|Rotation=180.000|XOffset=0mil|YOffset=0mil|HoleType=Round|Shape=RoundedRectangle|*
%AMROUNDEDRECTD33*
21,1,0.16299,0.06260,0,0,180.0*
21,1,0.13622,0.08937,0,0,180.0*
1,1,0.02677,-0.06811,0.03130*
1,1,0.02677,0.06811,0.03130*
1,1,0.02677,0.06811,-0.03130*
1,1,0.02677,-0.06811,-0.03130*
%
%ADD33ROUNDEDRECTD33*%
%ADD34R,0.04803X0.09095*%
%ADD35R,0.20669X0.09843*%
%ADD36R,0.26181X0.10433*%
G04:AMPARAMS|DCode=37|XSize=162.99mil|YSize=89.37mil|CornerRadius=13.39mil|HoleSize=0mil|Usage=FLASHONLY|Rotation=270.000|XOffset=0mil|YOffset=0mil|HoleType=Round|Shape=RoundedRectangle|*
%AMROUNDEDRECTD37*
21,1,0.16299,0.06260,0,0,270.0*
21,1,0.13622,0.08937,0,0,270.0*
1,1,0.02677,-0.03130,-0.06811*
1,1,0.02677,-0.03130,0.06811*
1,1,0.02677,0.03130,0.06811*
1,1,0.02677,0.03130,-0.06811*
%
%ADD37ROUNDEDRECTD37*%
G04:AMPARAMS|DCode=38|XSize=50.79mil|YSize=70.08mil|CornerRadius=8.56mil|HoleSize=0mil|Usage=FLASHONLY|Rotation=0.000|XOffset=0mil|YOffset=0mil|HoleType=Round|Shape=RoundedRectangle|*
%AMROUNDEDRECTD38*
21,1,0.05079,0.05295,0,0,0.0*
21,1,0.03366,0.07008,0,0,0.0*
1,1,0.01713,0.01683,-0.02648*
1,1,0.01713,-0.01683,-0.02648*
1,1,0.01713,-0.01683,0.02648*
1,1,0.01713,0.01683,0.02648*
%
%ADD38ROUNDEDRECTD38*%
G04:AMPARAMS|DCode=39|XSize=57.87mil|YSize=29.53mil|CornerRadius=5.91mil|HoleSize=0mil|Usage=FLASHONLY|Rotation=90.000|XOffset=0mil|YOffset=0mil|HoleType=Round|Shape=RoundedRectangle|*
%AMROUNDEDRECTD39*
21,1,0.05787,0.01772,0,0,90.0*
21,1,0.04606,0.02953,0,0,90.0*
1,1,0.01181,0.00886,0.02303*
1,1,0.01181,0.00886,-0.02303*
1,1,0.01181,-0.00886,-0.02303*
1,1,0.01181,-0.00886,0.02303*
%
%ADD39ROUNDEDRECTD39*%
%ADD40C,0.24213*%
%ADD41C,0.12402*%
%ADD42C,0.06591*%
%ADD43R,0.06591X0.06591*%
%ADD44C,0.25000*%
%ADD45C,0.10433*%
%ADD46R,0.05189X0.05189*%
%ADD47C,0.05189*%
%ADD48C,0.08209*%
%ADD49R,0.10433X0.10433*%
%ADD50R,0.05189X0.05189*%
%ADD51C,0.02362*%
G36*
X46122Y133142D02*
X54429D01*
Y128279D01*
X74429D01*
Y94697D01*
X54429D01*
Y89835D01*
X46122D01*
Y133142D01*
D02*
G37*
G36*
X157973Y131496D02*
X166279D01*
Y126634D01*
X186279D01*
Y93051D01*
X166279D01*
Y88189D01*
X157973D01*
Y131496D01*
D02*
G37*
G36*
X359842Y42835D02*
Y51142D01*
X364705D01*
Y71142D01*
X398287D01*
Y51142D01*
X403150D01*
Y42835D01*
X359842D01*
D02*
G37*
G36*
X544138Y42480D02*
Y50787D01*
X549000D01*
Y70787D01*
X582583D01*
Y50787D01*
X587445D01*
Y42480D01*
X544138D01*
D02*
G37*
G36*
X728150Y43012D02*
Y51319D01*
X733012D01*
Y71319D01*
X766594D01*
Y51319D01*
X771457D01*
Y43012D01*
X728150D01*
D02*
G37*
D27*
X732087Y108071D02*
D03*
Y113583D02*
D03*
X548032Y112599D02*
D03*
Y107087D02*
D03*
X363779Y112598D02*
D03*
Y107087D02*
D03*
X300787Y170079D02*
D03*
Y175591D02*
D03*
X537205Y107087D02*
D03*
Y112599D02*
D03*
X558858Y107087D02*
D03*
Y112599D02*
D03*
X486024Y307480D02*
D03*
Y301968D02*
D03*
Y175591D02*
D03*
Y170079D02*
D03*
Y242520D02*
D03*
Y237008D02*
D03*
Y434449D02*
D03*
Y428937D02*
D03*
Y372441D02*
D03*
Y366929D02*
D03*
X352953Y107087D02*
D03*
Y112598D02*
D03*
X300787Y242520D02*
D03*
Y237008D02*
D03*
Y307480D02*
D03*
Y301968D02*
D03*
Y372441D02*
D03*
Y366929D02*
D03*
Y437402D02*
D03*
Y431890D02*
D03*
X374606Y112598D02*
D03*
Y107087D02*
D03*
X670079Y170079D02*
D03*
Y175591D02*
D03*
Y237008D02*
D03*
Y242520D02*
D03*
Y301968D02*
D03*
Y307480D02*
D03*
Y366929D02*
D03*
Y372441D02*
D03*
Y428937D02*
D03*
Y434449D02*
D03*
X721260Y113583D02*
D03*
Y108071D02*
D03*
X742913D02*
D03*
Y113583D02*
D03*
D28*
X110374Y128417D02*
D03*
X115886D02*
D03*
X223031Y127559D02*
D03*
X228543D02*
D03*
Y116732D02*
D03*
X223031D02*
D03*
Y138386D02*
D03*
X228543D02*
D03*
X115886Y117591D02*
D03*
X110374D02*
D03*
Y139244D02*
D03*
X115886D02*
D03*
D29*
X235335Y98032D02*
D03*
X251673D02*
D03*
X123661Y98890D02*
D03*
X140000D02*
D03*
D30*
X212992Y24213D02*
D03*
Y73425D02*
D03*
X101319Y74283D02*
D03*
Y25071D02*
D03*
D31*
X224803Y103504D02*
D03*
Y90591D02*
D03*
X113130Y104362D02*
D03*
Y91449D02*
D03*
X508661Y301634D02*
D03*
Y314547D02*
D03*
Y169744D02*
D03*
Y182657D02*
D03*
Y236673D02*
D03*
Y249587D02*
D03*
Y428189D02*
D03*
Y441102D02*
D03*
Y366595D02*
D03*
Y379508D02*
D03*
X324410Y169744D02*
D03*
Y182657D02*
D03*
Y236673D02*
D03*
Y249587D02*
D03*
Y301634D02*
D03*
Y314547D02*
D03*
Y366595D02*
D03*
Y379508D02*
D03*
Y431555D02*
D03*
Y444468D02*
D03*
X692717Y182657D02*
D03*
Y169744D02*
D03*
Y249587D02*
D03*
Y236673D02*
D03*
Y314547D02*
D03*
Y301634D02*
D03*
Y379508D02*
D03*
Y366595D02*
D03*
Y441102D02*
D03*
Y428189D02*
D03*
D32*
X214154Y96457D02*
D03*
Y103150D02*
D03*
Y109843D02*
D03*
Y116536D02*
D03*
Y123229D02*
D03*
X102303Y98102D02*
D03*
Y104795D02*
D03*
Y111488D02*
D03*
Y118181D02*
D03*
Y124874D02*
D03*
D33*
X210984Y154134D02*
D03*
X177599D02*
D03*
X98327Y155976D02*
D03*
X64941D02*
D03*
D34*
X763189Y99193D02*
D03*
X756496D02*
D03*
X749803D02*
D03*
X743110D02*
D03*
X736417D02*
D03*
X552406Y98661D02*
D03*
X559098D02*
D03*
X565791D02*
D03*
X572484D02*
D03*
X579177D02*
D03*
X368110Y99016D02*
D03*
X374803D02*
D03*
X381496D02*
D03*
X388189D02*
D03*
X394882D02*
D03*
D35*
X761614Y120374D02*
D03*
Y136713D02*
D03*
X577559Y120374D02*
D03*
Y136713D02*
D03*
X393307Y120374D02*
D03*
Y136713D02*
D03*
D36*
X835433Y98031D02*
D03*
X786221D02*
D03*
X602165D02*
D03*
X651378D02*
D03*
X417913D02*
D03*
X467126D02*
D03*
D37*
X337205Y61654D02*
D03*
Y95039D02*
D03*
X521456Y60669D02*
D03*
Y94055D02*
D03*
X705512Y95039D02*
D03*
Y61654D02*
D03*
D38*
X756142Y109843D02*
D03*
X769055D02*
D03*
X585000D02*
D03*
X572086D02*
D03*
X400748Y109842D02*
D03*
X387835D02*
D03*
D39*
X308858Y170866D02*
D03*
X316338D02*
D03*
X312598Y178740D02*
D03*
X497834Y310630D02*
D03*
X501575Y302756D02*
D03*
X494094D02*
D03*
X497834Y245669D02*
D03*
X501575Y237795D02*
D03*
X494094D02*
D03*
X497834Y178740D02*
D03*
X501575Y170866D02*
D03*
X494094D02*
D03*
X497834Y437598D02*
D03*
X501575Y429724D02*
D03*
X494094D02*
D03*
X497834Y375591D02*
D03*
X501575Y367717D02*
D03*
X494094D02*
D03*
X312598Y245669D02*
D03*
X316338Y237795D02*
D03*
X308858D02*
D03*
X312598Y310630D02*
D03*
X316338Y302756D02*
D03*
X308858D02*
D03*
X312598Y375591D02*
D03*
X316338Y367717D02*
D03*
X308858D02*
D03*
X312598Y440551D02*
D03*
X316338Y432677D02*
D03*
X308858D02*
D03*
X678150Y170866D02*
D03*
X685630D02*
D03*
X681890Y178740D02*
D03*
X678150Y237795D02*
D03*
X685630D02*
D03*
X681890Y245669D02*
D03*
X678150Y302756D02*
D03*
X685630D02*
D03*
X681890Y310630D02*
D03*
X678150Y367717D02*
D03*
X685630D02*
D03*
X681890Y375591D02*
D03*
X678150Y429724D02*
D03*
X685630D02*
D03*
X681890Y437598D02*
D03*
D40*
X461319Y462598D02*
D03*
Y29626D02*
D03*
X836614Y29528D02*
D03*
Y462598D02*
D03*
X29528D02*
D03*
Y29528D02*
D03*
D41*
X296063Y61417D02*
D03*
X277953D02*
D03*
D42*
X192087Y435197D02*
D03*
Y425197D02*
D03*
X182087Y435197D02*
D03*
Y425197D02*
D03*
X216193Y411181D02*
D03*
Y401181D02*
D03*
Y391181D02*
D03*
Y381181D02*
D03*
Y371181D02*
D03*
Y361181D02*
D03*
X206193Y411181D02*
D03*
Y401181D02*
D03*
Y391181D02*
D03*
Y381181D02*
D03*
Y371181D02*
D03*
Y361181D02*
D03*
X216193Y351181D02*
D03*
X206193D02*
D03*
X216193Y341181D02*
D03*
Y331181D02*
D03*
Y321181D02*
D03*
Y311181D02*
D03*
Y301181D02*
D03*
Y291181D02*
D03*
X206193Y341181D02*
D03*
Y331181D02*
D03*
Y321181D02*
D03*
Y311181D02*
D03*
Y301181D02*
D03*
Y291181D02*
D03*
X216193Y281181D02*
D03*
X206193D02*
D03*
X216193Y271181D02*
D03*
Y261181D02*
D03*
Y251181D02*
D03*
Y241181D02*
D03*
Y231181D02*
D03*
Y221181D02*
D03*
X206193Y271181D02*
D03*
Y261181D02*
D03*
Y251181D02*
D03*
Y241181D02*
D03*
Y231181D02*
D03*
D43*
Y221181D02*
D03*
D44*
X211193Y202008D02*
D03*
Y430354D02*
D03*
X18279D02*
D03*
Y202008D02*
D03*
D45*
X343701Y412992D02*
D03*
X575984Y198425D02*
D03*
Y151181D02*
D03*
X527953D02*
D03*
X575984Y460236D02*
D03*
Y412992D02*
D03*
X527953D02*
D03*
X575984Y395276D02*
D03*
Y348032D02*
D03*
X527953D02*
D03*
X575984Y330315D02*
D03*
Y283071D02*
D03*
X527953D02*
D03*
X575984Y265354D02*
D03*
Y218110D02*
D03*
X527953D02*
D03*
X391732Y198425D02*
D03*
Y151181D02*
D03*
X343701D02*
D03*
X391732Y265354D02*
D03*
Y218110D02*
D03*
X343701D02*
D03*
X391732Y330315D02*
D03*
Y283071D02*
D03*
X343701D02*
D03*
X391732Y395276D02*
D03*
Y348032D02*
D03*
X343701D02*
D03*
X391732Y460236D02*
D03*
Y412992D02*
D03*
X712008Y151181D02*
D03*
X760039D02*
D03*
Y198425D02*
D03*
X712008Y218110D02*
D03*
X760039D02*
D03*
Y265354D02*
D03*
X712008Y283071D02*
D03*
X760039D02*
D03*
Y330315D02*
D03*
X712008Y348032D02*
D03*
X760039D02*
D03*
Y395276D02*
D03*
X712008Y412992D02*
D03*
X760039D02*
D03*
Y460236D02*
D03*
D46*
X290039Y94094D02*
D03*
Y107874D02*
D03*
Y80315D02*
D03*
D47*
X280039Y94094D02*
D03*
Y107874D02*
D03*
X606102Y444075D02*
D03*
Y314154D02*
D03*
Y182264D02*
D03*
Y249193D02*
D03*
Y379114D02*
D03*
X790157D02*
D03*
X421850Y181280D02*
D03*
Y248209D02*
D03*
Y313169D02*
D03*
Y378130D02*
D03*
Y443091D02*
D03*
X280039Y80315D02*
D03*
X790157Y182264D02*
D03*
Y249193D02*
D03*
Y314154D02*
D03*
Y444075D02*
D03*
D48*
X520079Y174803D02*
D03*
Y436614D02*
D03*
Y371654D02*
D03*
Y306693D02*
D03*
Y241732D02*
D03*
X335827Y174803D02*
D03*
Y241732D02*
D03*
Y306693D02*
D03*
Y371654D02*
D03*
Y436614D02*
D03*
X704134Y174803D02*
D03*
Y241732D02*
D03*
Y306693D02*
D03*
Y371654D02*
D03*
Y436614D02*
D03*
D49*
X527953Y198425D02*
D03*
Y460236D02*
D03*
Y395276D02*
D03*
Y330315D02*
D03*
Y265354D02*
D03*
X343701Y198425D02*
D03*
Y265354D02*
D03*
Y330315D02*
D03*
Y395276D02*
D03*
Y460236D02*
D03*
X712008Y198425D02*
D03*
Y265354D02*
D03*
Y330315D02*
D03*
Y395276D02*
D03*
Y460236D02*
D03*
D50*
X606102Y434075D02*
D03*
Y304154D02*
D03*
Y172264D02*
D03*
Y239193D02*
D03*
Y369114D02*
D03*
X790157D02*
D03*
X421850Y171280D02*
D03*
Y238209D02*
D03*
Y303169D02*
D03*
Y368130D02*
D03*
Y433091D02*
D03*
X790157Y172264D02*
D03*
Y239193D02*
D03*
Y304154D02*
D03*
Y434075D02*
D03*
D51*
X175592Y97638D02*
D03*
X181891D02*
D03*
X385041Y56693D02*
D03*
X231434Y129232D02*
D03*
X360236Y116831D02*
D03*
X735827Y119488D02*
D03*
X731737Y117365D02*
D03*
X728248Y118898D02*
D03*
X551970Y116536D02*
D03*
X548821D02*
D03*
X545671D02*
D03*
X366143D02*
D03*
X362994D02*
D03*
X122049Y132284D02*
D03*
Y125985D02*
D03*
X118899Y132284D02*
D03*
X120474Y129135D02*
D03*
X118899Y125985D02*
D03*
X235435D02*
D03*
X233860Y129135D02*
D03*
X232285Y125985D02*
D03*
X128348Y81890D02*
D03*
X129923Y78741D02*
D03*
X128348Y75591D02*
D03*
X129923Y72442D02*
D03*
X128348Y69292D02*
D03*
X129923Y66142D02*
D03*
X128348Y62993D02*
D03*
X125198Y81890D02*
D03*
X126773Y78741D02*
D03*
X125198Y75591D02*
D03*
X126773Y72442D02*
D03*
X125198Y69292D02*
D03*
X126773Y66142D02*
D03*
X125198Y62993D02*
D03*
X122049Y81890D02*
D03*
X123624Y78741D02*
D03*
X122049Y75591D02*
D03*
X123624Y72442D02*
D03*
X122049Y69292D02*
D03*
X123624Y66142D02*
D03*
X122049Y62993D02*
D03*
X118899Y81890D02*
D03*
X120474Y78741D02*
D03*
X118899Y75591D02*
D03*
X120474Y72442D02*
D03*
X118899Y69292D02*
D03*
X120474Y66142D02*
D03*
X118899Y62993D02*
D03*
X115750Y81890D02*
D03*
X117324Y78741D02*
D03*
X115750Y75591D02*
D03*
X117324Y72442D02*
D03*
X115750Y69292D02*
D03*
X117324Y66142D02*
D03*
X115750Y62993D02*
D03*
X112600Y81890D02*
D03*
X114175Y78741D02*
D03*
X112600Y75591D02*
D03*
X114175Y72442D02*
D03*
X112600Y69292D02*
D03*
X114175Y66142D02*
D03*
X112600Y62993D02*
D03*
X109450Y81890D02*
D03*
X111025Y78741D02*
D03*
X109450Y75591D02*
D03*
X111025Y72442D02*
D03*
X109450Y69292D02*
D03*
X111025Y66142D02*
D03*
X109450Y62993D02*
D03*
X106301Y94489D02*
D03*
X107876Y78741D02*
D03*
Y72442D02*
D03*
Y66142D02*
D03*
X103151Y94489D02*
D03*
X104726Y91339D02*
D03*
X100001Y94489D02*
D03*
X101576Y91339D02*
D03*
X96852Y94489D02*
D03*
X98427Y91339D02*
D03*
X232285Y81890D02*
D03*
X233860Y78741D02*
D03*
X232285Y75591D02*
D03*
X233860Y72442D02*
D03*
X232285Y69292D02*
D03*
X233860Y66142D02*
D03*
X232285Y62993D02*
D03*
X229135Y81890D02*
D03*
X230710Y78741D02*
D03*
X229135Y75591D02*
D03*
X230710Y72442D02*
D03*
X229135Y69292D02*
D03*
X230710Y66142D02*
D03*
X229135Y62993D02*
D03*
X225986Y81890D02*
D03*
X227561Y78741D02*
D03*
X225986Y75591D02*
D03*
X227561Y72442D02*
D03*
X225986Y69292D02*
D03*
X227561Y66142D02*
D03*
X225986Y62993D02*
D03*
X222836Y81890D02*
D03*
X224411Y78741D02*
D03*
X222836Y75591D02*
D03*
X224411Y72442D02*
D03*
X222836Y69292D02*
D03*
X224411Y66142D02*
D03*
X222836Y62993D02*
D03*
X219687Y81890D02*
D03*
X221261Y78741D02*
D03*
X219687Y75591D02*
D03*
X221261Y72442D02*
D03*
X219687Y69292D02*
D03*
X221261Y66142D02*
D03*
X219687Y62993D02*
D03*
X218112Y91339D02*
D03*
X216537Y88190D02*
D03*
X214962Y91339D02*
D03*
X213387Y88190D02*
D03*
X211813Y91339D02*
D03*
X210238Y88190D02*
D03*
X767719Y47245D02*
D03*
X764569Y66142D02*
D03*
Y59843D02*
D03*
Y53544D02*
D03*
Y47245D02*
D03*
X762994Y69292D02*
D03*
X761419Y66142D02*
D03*
X762994Y62993D02*
D03*
X761419Y59843D02*
D03*
X762994Y56693D02*
D03*
X761419Y53544D02*
D03*
X762994Y50394D02*
D03*
X761419Y47245D02*
D03*
X759845Y69292D02*
D03*
X758270Y66142D02*
D03*
X759845Y62993D02*
D03*
X758270Y59843D02*
D03*
X759845Y56693D02*
D03*
X758270Y53544D02*
D03*
X759845Y50394D02*
D03*
X758270Y47245D02*
D03*
X756695Y69292D02*
D03*
X755120Y66142D02*
D03*
X756695Y62993D02*
D03*
X755120Y59843D02*
D03*
X756695Y56693D02*
D03*
X755120Y53544D02*
D03*
X756695Y50394D02*
D03*
X755120Y47245D02*
D03*
X753546Y69292D02*
D03*
X751971Y66142D02*
D03*
X753546Y62993D02*
D03*
X751971Y59843D02*
D03*
X753546Y56693D02*
D03*
X751971Y53544D02*
D03*
X753546Y50394D02*
D03*
X750396Y69292D02*
D03*
X748821Y66142D02*
D03*
X750396Y62993D02*
D03*
X748821Y59843D02*
D03*
X750396Y56693D02*
D03*
X748821Y53544D02*
D03*
X750396Y50394D02*
D03*
X747246Y69292D02*
D03*
X745672Y66142D02*
D03*
X747246Y62993D02*
D03*
X745672Y59843D02*
D03*
X747246Y56693D02*
D03*
X745672Y53544D02*
D03*
X747246Y50394D02*
D03*
X745672Y47245D02*
D03*
X744097Y69292D02*
D03*
X742522Y66142D02*
D03*
X744097Y62993D02*
D03*
X742522Y59843D02*
D03*
X744097Y56693D02*
D03*
X742522Y53544D02*
D03*
X744097Y50394D02*
D03*
X742522Y47245D02*
D03*
X740947Y69292D02*
D03*
X739372Y66142D02*
D03*
X740947Y62993D02*
D03*
X739372Y59843D02*
D03*
X740947Y56693D02*
D03*
X739372Y53544D02*
D03*
X740947Y50394D02*
D03*
X739372Y47245D02*
D03*
X737797Y69292D02*
D03*
X736223Y66142D02*
D03*
X737797Y62993D02*
D03*
X736223Y59843D02*
D03*
X737797Y56693D02*
D03*
X736223Y53544D02*
D03*
X737797Y50394D02*
D03*
X736223Y47245D02*
D03*
X733073D02*
D03*
X583467D02*
D03*
X580317Y66142D02*
D03*
X578742Y62993D02*
D03*
X580317Y59843D02*
D03*
Y53544D02*
D03*
X578742Y50394D02*
D03*
X580317Y47245D02*
D03*
X577167Y66142D02*
D03*
X575593Y62993D02*
D03*
X577167Y59843D02*
D03*
X575593Y56693D02*
D03*
X577167Y53544D02*
D03*
X575593Y50394D02*
D03*
X577167Y47245D02*
D03*
X574018Y66142D02*
D03*
X572443Y62993D02*
D03*
X574018Y59843D02*
D03*
X572443Y56693D02*
D03*
X574018Y53544D02*
D03*
X572443Y50394D02*
D03*
X574018Y47245D02*
D03*
X570868Y66142D02*
D03*
X569293Y62993D02*
D03*
X570868Y59843D02*
D03*
X569293Y56693D02*
D03*
X570868Y53544D02*
D03*
X569293Y50394D02*
D03*
X570868Y47245D02*
D03*
X567719Y66142D02*
D03*
X566144Y62993D02*
D03*
X567719Y59843D02*
D03*
X566144Y56693D02*
D03*
X567719Y53544D02*
D03*
X566144Y50394D02*
D03*
X564569Y66142D02*
D03*
X562994Y62993D02*
D03*
X564569Y59843D02*
D03*
X562994Y56693D02*
D03*
X564569Y53544D02*
D03*
X562994Y50394D02*
D03*
X561419Y66142D02*
D03*
X559844Y62993D02*
D03*
X561419Y59843D02*
D03*
X559844Y56693D02*
D03*
X561419Y53544D02*
D03*
X559844Y50394D02*
D03*
X561419Y47245D02*
D03*
X558270Y66142D02*
D03*
X556695Y62993D02*
D03*
X558270Y59843D02*
D03*
X556695Y56693D02*
D03*
X558270Y53544D02*
D03*
X556695Y50394D02*
D03*
X558270Y47245D02*
D03*
X555120Y66142D02*
D03*
X553545Y62993D02*
D03*
X555120Y59843D02*
D03*
X553545Y56693D02*
D03*
X555120Y53544D02*
D03*
X553545Y50394D02*
D03*
X555120Y47245D02*
D03*
X551970Y66142D02*
D03*
Y59843D02*
D03*
Y53544D02*
D03*
Y47245D02*
D03*
X548821D02*
D03*
X71655Y122835D02*
D03*
Y116536D02*
D03*
Y110237D02*
D03*
Y103938D02*
D03*
Y97638D02*
D03*
X70080Y125985D02*
D03*
X68505Y122835D02*
D03*
X70080Y119686D02*
D03*
X68505Y116536D02*
D03*
X70080Y113386D02*
D03*
X68505Y110237D02*
D03*
X70080Y107087D02*
D03*
X68505Y103938D02*
D03*
X70080Y100788D02*
D03*
X68505Y97638D02*
D03*
X66931Y125985D02*
D03*
X65356Y122835D02*
D03*
X66931Y119686D02*
D03*
X65356Y116536D02*
D03*
X66931Y113386D02*
D03*
X65356Y110237D02*
D03*
X66931Y107087D02*
D03*
X65356Y103938D02*
D03*
X66931Y100788D02*
D03*
X65356Y97638D02*
D03*
X63781Y125985D02*
D03*
X62206Y122835D02*
D03*
X63781Y119686D02*
D03*
X62206Y116536D02*
D03*
X63781Y113386D02*
D03*
X62206Y110237D02*
D03*
X63781Y107087D02*
D03*
X62206Y103938D02*
D03*
X63781Y100788D02*
D03*
X62206Y97638D02*
D03*
X60631Y125985D02*
D03*
X59057Y122835D02*
D03*
X60631Y119686D02*
D03*
X59057Y116536D02*
D03*
X60631Y113386D02*
D03*
X59057Y110237D02*
D03*
X60631Y107087D02*
D03*
X59057Y103938D02*
D03*
X60631Y100788D02*
D03*
X59057Y97638D02*
D03*
X57482Y125985D02*
D03*
X55907Y122835D02*
D03*
X57482Y119686D02*
D03*
X55907Y116536D02*
D03*
X57482Y113386D02*
D03*
X55907Y110237D02*
D03*
X57482Y107087D02*
D03*
X55907Y103938D02*
D03*
X57482Y100788D02*
D03*
X55907Y97638D02*
D03*
X54332Y125985D02*
D03*
X52757Y122835D02*
D03*
X54332Y119686D02*
D03*
X52757Y116536D02*
D03*
X54332Y113386D02*
D03*
X52757Y110237D02*
D03*
X54332Y107087D02*
D03*
X52757Y103938D02*
D03*
X54332Y100788D02*
D03*
X52757Y97638D02*
D03*
X49608Y129135D02*
D03*
X51183Y125985D02*
D03*
X49608Y122835D02*
D03*
X51183Y119686D02*
D03*
X49608Y116536D02*
D03*
X51183Y107087D02*
D03*
X49608Y103938D02*
D03*
X51183Y100788D02*
D03*
X49608Y97638D02*
D03*
X51183Y94489D02*
D03*
X49608Y91339D02*
D03*
X181891Y122835D02*
D03*
X183466Y119686D02*
D03*
X181891Y116536D02*
D03*
X183466Y113386D02*
D03*
X181891Y110237D02*
D03*
X183466Y107087D02*
D03*
X181891Y103938D02*
D03*
X183466Y100788D02*
D03*
X178742Y122835D02*
D03*
X180316Y119686D02*
D03*
X178742Y116536D02*
D03*
X180316Y113386D02*
D03*
X178742Y110237D02*
D03*
X180316Y107087D02*
D03*
X178742Y103938D02*
D03*
X180316Y100788D02*
D03*
X178742Y97638D02*
D03*
X175592Y122835D02*
D03*
X177167Y119686D02*
D03*
X175592Y116536D02*
D03*
X177167Y113386D02*
D03*
X175592Y110237D02*
D03*
X177167Y107087D02*
D03*
X175592Y103938D02*
D03*
X177167Y100788D02*
D03*
X172442Y122835D02*
D03*
X174017Y119686D02*
D03*
X172442Y116536D02*
D03*
X174017Y113386D02*
D03*
X172442Y110237D02*
D03*
X174017Y107087D02*
D03*
X172442Y103938D02*
D03*
X174017Y100788D02*
D03*
X172442Y97638D02*
D03*
X169293Y122835D02*
D03*
X170868Y119686D02*
D03*
X169293Y116536D02*
D03*
X170868Y113386D02*
D03*
X169293Y110237D02*
D03*
X170868Y107087D02*
D03*
X169293Y103938D02*
D03*
X170868Y100788D02*
D03*
X169293Y97638D02*
D03*
X166143Y122835D02*
D03*
X167718Y119686D02*
D03*
X166143Y116536D02*
D03*
X167718Y113386D02*
D03*
X166143Y110237D02*
D03*
X167718Y107087D02*
D03*
X166143Y103938D02*
D03*
X167718Y100788D02*
D03*
X166143Y97638D02*
D03*
X162994Y129135D02*
D03*
X164568Y125985D02*
D03*
X162994Y122835D02*
D03*
X164568Y119686D02*
D03*
X162994Y116536D02*
D03*
X164568Y113386D02*
D03*
Y107087D02*
D03*
X162994Y103938D02*
D03*
X164568Y100788D02*
D03*
X162994Y97638D02*
D03*
X164568Y94489D02*
D03*
X162994Y91339D02*
D03*
X159844Y129135D02*
D03*
X161419Y125985D02*
D03*
X159844Y122835D02*
D03*
X161419Y119686D02*
D03*
X159844Y116536D02*
D03*
X161419Y113386D02*
D03*
Y107087D02*
D03*
X159844Y103938D02*
D03*
X161419Y100788D02*
D03*
X159844Y97638D02*
D03*
X161419Y94489D02*
D03*
X159844Y91339D02*
D03*
X399214Y47245D02*
D03*
X396065Y66142D02*
D03*
Y59843D02*
D03*
Y53544D02*
D03*
Y47245D02*
D03*
X392915Y66142D02*
D03*
X394490Y62993D02*
D03*
X392915Y59843D02*
D03*
X394490Y56693D02*
D03*
X392915Y53544D02*
D03*
X394490Y50394D02*
D03*
X392915Y47245D02*
D03*
X389766Y66142D02*
D03*
X391340Y62993D02*
D03*
X389766Y59843D02*
D03*
X391340Y56693D02*
D03*
X389766Y53544D02*
D03*
X391340Y50394D02*
D03*
X389766Y47245D02*
D03*
X386616Y66142D02*
D03*
X388191Y62993D02*
D03*
X386616Y59843D02*
D03*
X388191Y56693D02*
D03*
X386616Y53544D02*
D03*
X388191Y50394D02*
D03*
X386616Y47245D02*
D03*
X383466Y66142D02*
D03*
X385041Y62993D02*
D03*
X383466Y59843D02*
D03*
Y53544D02*
D03*
X385041Y50394D02*
D03*
X380317Y66142D02*
D03*
X381891Y62993D02*
D03*
X380317Y59843D02*
D03*
X381891Y56693D02*
D03*
X380317Y53544D02*
D03*
X381891Y50394D02*
D03*
X377167Y66142D02*
D03*
X378742Y62993D02*
D03*
X377167Y59843D02*
D03*
X378742Y56693D02*
D03*
X377167Y53544D02*
D03*
X378742Y50394D02*
D03*
X377167Y47245D02*
D03*
X374018Y66142D02*
D03*
X375592Y62993D02*
D03*
X374018Y59843D02*
D03*
X375592Y56693D02*
D03*
X374018Y53544D02*
D03*
X375592Y50394D02*
D03*
X374018Y47245D02*
D03*
X370868Y66142D02*
D03*
X372443Y62993D02*
D03*
X370868Y59843D02*
D03*
X372443Y56693D02*
D03*
X370868Y53544D02*
D03*
X372443Y50394D02*
D03*
X370868Y47245D02*
D03*
X367718Y66142D02*
D03*
X369293Y62993D02*
D03*
X367718Y59843D02*
D03*
X369293Y56693D02*
D03*
X367718Y53544D02*
D03*
X369293Y50394D02*
D03*
X367718Y47245D02*
D03*
X366143Y62993D02*
D03*
Y56693D02*
D03*
Y50394D02*
D03*
X364569Y47245D02*
D03*
X361419D02*
D03*
X796065Y91339D02*
D03*
X797640Y88190D02*
D03*
X796065Y85040D02*
D03*
X797640Y81890D02*
D03*
X796065Y78741D02*
D03*
X792916Y91339D02*
D03*
X794490Y88190D02*
D03*
X792916Y85040D02*
D03*
X794490Y81890D02*
D03*
X792916Y78741D02*
D03*
X789766Y91339D02*
D03*
X791341Y88190D02*
D03*
X789766Y85040D02*
D03*
X791341Y81890D02*
D03*
X789766Y78741D02*
D03*
X786616Y91339D02*
D03*
X788191Y88190D02*
D03*
X786616Y85040D02*
D03*
X788191Y81890D02*
D03*
X786616Y78741D02*
D03*
X783467Y91339D02*
D03*
X785042Y88190D02*
D03*
X783467Y85040D02*
D03*
X785042Y81890D02*
D03*
X783467Y78741D02*
D03*
X780317Y91339D02*
D03*
X781892Y88190D02*
D03*
X780317Y85040D02*
D03*
X781892Y81890D02*
D03*
X780317Y78741D02*
D03*
X777168Y91339D02*
D03*
X778742Y88190D02*
D03*
X777168Y85040D02*
D03*
X778742Y81890D02*
D03*
X777168Y78741D02*
D03*
X774018Y91339D02*
D03*
X775593Y88190D02*
D03*
X774018Y85040D02*
D03*
X775593Y81890D02*
D03*
X774018Y78741D02*
D03*
X770868Y97638D02*
D03*
X769294Y100788D02*
D03*
X767719Y97638D02*
D03*
X769294Y94489D02*
D03*
X613388Y91339D02*
D03*
X614963Y88190D02*
D03*
X613388Y85040D02*
D03*
X614963Y81890D02*
D03*
X613388Y78741D02*
D03*
X610238Y91339D02*
D03*
X611813Y88190D02*
D03*
X610238Y85040D02*
D03*
X611813Y81890D02*
D03*
X610238Y78741D02*
D03*
X607089Y91339D02*
D03*
X608664Y88190D02*
D03*
X607089Y85040D02*
D03*
X608664Y81890D02*
D03*
X607089Y78741D02*
D03*
X603939Y91339D02*
D03*
X605514Y88190D02*
D03*
X603939Y85040D02*
D03*
X605514Y81890D02*
D03*
X603939Y78741D02*
D03*
X600789Y91339D02*
D03*
X602364Y88190D02*
D03*
X600789Y85040D02*
D03*
X602364Y81890D02*
D03*
X600789Y78741D02*
D03*
X597640Y91339D02*
D03*
X599215Y88190D02*
D03*
X597640Y85040D02*
D03*
X599215Y81890D02*
D03*
X597640Y78741D02*
D03*
X594490Y91339D02*
D03*
X596065Y88190D02*
D03*
X594490Y85040D02*
D03*
X596065Y81890D02*
D03*
X594490Y78741D02*
D03*
X591341Y91339D02*
D03*
X592915Y88190D02*
D03*
X591341Y85040D02*
D03*
X592915Y81890D02*
D03*
X591341Y78741D02*
D03*
X586616Y100788D02*
D03*
X585041Y97638D02*
D03*
X586616Y94489D02*
D03*
X583467Y100788D02*
D03*
Y94489D02*
D03*
X427561Y91339D02*
D03*
X429136Y88190D02*
D03*
X427561Y85040D02*
D03*
X429136Y81890D02*
D03*
X427561Y78741D02*
D03*
X424411Y91339D02*
D03*
X425986Y88190D02*
D03*
X424411Y85040D02*
D03*
X425986Y81890D02*
D03*
X424411Y78741D02*
D03*
X421262Y91339D02*
D03*
X422836Y88190D02*
D03*
X421262Y85040D02*
D03*
X422836Y81890D02*
D03*
X421262Y78741D02*
D03*
X418112Y91339D02*
D03*
X419687Y88190D02*
D03*
X418112Y85040D02*
D03*
X419687Y81890D02*
D03*
X418112Y78741D02*
D03*
X414962Y91339D02*
D03*
X416537Y88190D02*
D03*
X414962Y85040D02*
D03*
X416537Y81890D02*
D03*
X414962Y78741D02*
D03*
X411813Y91339D02*
D03*
X413388Y88190D02*
D03*
X411813Y85040D02*
D03*
X413388Y81890D02*
D03*
X411813Y78741D02*
D03*
X408663Y91339D02*
D03*
X410238Y88190D02*
D03*
X408663Y85040D02*
D03*
X410238Y81890D02*
D03*
X408663Y78741D02*
D03*
X407088Y88190D02*
D03*
Y81890D02*
D03*
X402364Y97638D02*
D03*
X400789Y100788D02*
D03*
X399214Y97638D02*
D03*
X400789Y94489D02*
D03*
X283555Y304126D02*
D03*
X268406Y350787D02*
D03*
X249606Y310630D02*
D03*
X278248Y182087D02*
D03*
X644685Y317913D02*
D03*
X617953Y244848D02*
D03*
X442360Y339148D02*
D03*
X647453Y366448D02*
D03*
X654353Y424048D02*
D03*
X462586Y307480D02*
D03*
X444754Y299448D02*
D03*
X475654Y242520D02*
D03*
M02*
