G04*
G04 #@! TF.GenerationSoftware,Altium Limited,Altium Designer,24.0.1 (36)*
G04*
G04 Layer_Physical_Order=2*
G04 Layer_Color=16440176*
%FSLAX25Y25*%
%MOIN*%
G70*
G04*
G04 #@! TF.SameCoordinates,6F695E82-0B5E-43C6-9C8D-46E310A5337D*
G04*
G04*
G04 #@! TF.FilePolarity,Positive*
G04*
G01*
G75*
%ADD54C,0.01968*%
%ADD55C,0.07874*%
%ADD56C,0.23622*%
%ADD57C,0.11811*%
%ADD58C,0.06000*%
%ADD60C,0.24410*%
%ADD61C,0.09843*%
%ADD63C,0.04598*%
%ADD64C,0.07618*%
%ADD65R,0.09843X0.09843*%
%ADD67C,0.01772*%
G36*
X707183Y438961D02*
X707511Y438675D01*
X707838Y438423D01*
X708165Y438204D01*
X708490Y438019D01*
X708813Y437868D01*
X709136Y437750D01*
X709458Y437666D01*
X709779Y437615D01*
X710099Y437599D01*
Y435630D01*
X709779Y435613D01*
X709458Y435563D01*
X709136Y435479D01*
X708813Y435361D01*
X708490Y435210D01*
X708165Y435024D01*
X707838Y434806D01*
X707511Y434553D01*
X707183Y434268D01*
X706854Y433948D01*
Y439281D01*
X707183Y438961D01*
D02*
G37*
G36*
X523128D02*
X523456Y438675D01*
X523783Y438423D01*
X524110Y438204D01*
X524435Y438019D01*
X524758Y437868D01*
X525081Y437750D01*
X525403Y437666D01*
X525724Y437615D01*
X526044Y437599D01*
Y435630D01*
X525724Y435613D01*
X525403Y435563D01*
X525081Y435479D01*
X524758Y435361D01*
X524435Y435210D01*
X524110Y435024D01*
X523783Y434806D01*
X523456Y434553D01*
X523128Y434268D01*
X522799Y433948D01*
Y439281D01*
X523128Y438961D01*
D02*
G37*
G36*
X338876D02*
X339204Y438675D01*
X339531Y438423D01*
X339858Y438204D01*
X340183Y438019D01*
X340507Y437868D01*
X340829Y437750D01*
X341151Y437666D01*
X341472Y437615D01*
X341792Y437599D01*
Y435630D01*
X341472Y435613D01*
X341151Y435563D01*
X340829Y435479D01*
X340507Y435361D01*
X340183Y435210D01*
X339858Y435024D01*
X339531Y434806D01*
X339204Y434553D01*
X338876Y434268D01*
X338547Y433948D01*
Y439281D01*
X338876Y438961D01*
D02*
G37*
G36*
X788105Y436818D02*
X788276Y436677D01*
X788448Y436558D01*
X788619Y436459D01*
X788789Y436382D01*
X788959Y436326D01*
X789128Y436291D01*
X789296Y436277D01*
X789464Y436284D01*
X789632Y436313D01*
X787909Y433594D01*
X787868Y433754D01*
X787814Y433915D01*
X787746Y434076D01*
X787664Y434239D01*
X787569Y434403D01*
X787461Y434568D01*
X787203Y434901D01*
X787053Y435069D01*
X786890Y435238D01*
X787932Y436980D01*
X788105Y436818D01*
D02*
G37*
G36*
X604050D02*
X604221Y436677D01*
X604393Y436558D01*
X604564Y436459D01*
X604734Y436382D01*
X604904Y436326D01*
X605073Y436291D01*
X605241Y436277D01*
X605409Y436284D01*
X605577Y436313D01*
X603854Y433594D01*
X603813Y433754D01*
X603759Y433915D01*
X603691Y434076D01*
X603609Y434239D01*
X603514Y434403D01*
X603406Y434568D01*
X603148Y434901D01*
X602998Y435069D01*
X602835Y435238D01*
X603877Y436980D01*
X604050Y436818D01*
D02*
G37*
G36*
X420007Y435955D02*
X420179Y435813D01*
X420351Y435690D01*
X420522Y435587D01*
X420695Y435502D01*
X420867Y435437D01*
X421040Y435392D01*
X421212Y435366D01*
X421385Y435359D01*
X421559Y435371D01*
X419564Y432845D01*
X419538Y433015D01*
X419497Y433185D01*
X419441Y433355D01*
X419370Y433525D01*
X419284Y433695D01*
X419182Y433865D01*
X419066Y434034D01*
X418934Y434204D01*
X418787Y434374D01*
X418626Y434543D01*
X419836Y436117D01*
X420007Y435955D01*
D02*
G37*
G36*
X210165Y383762D02*
X209978Y383559D01*
X209810Y383344D01*
X209663Y383117D01*
X209535Y382879D01*
X209428Y382630D01*
X209341Y382369D01*
X209274Y382097D01*
X209226Y381813D01*
X209200Y381518D01*
X209193Y381211D01*
X206223Y384181D01*
X206529Y384188D01*
X206825Y384215D01*
X207108Y384262D01*
X207381Y384329D01*
X207642Y384417D01*
X207891Y384524D01*
X208129Y384651D01*
X208355Y384799D01*
X208570Y384966D01*
X208773Y385154D01*
X210165Y383762D01*
D02*
G37*
G36*
X707183Y374000D02*
X707511Y373714D01*
X707838Y373462D01*
X708165Y373243D01*
X708490Y373058D01*
X708813Y372907D01*
X709136Y372789D01*
X709458Y372705D01*
X709779Y372655D01*
X710099Y372638D01*
Y370669D01*
X709779Y370653D01*
X709458Y370602D01*
X709136Y370518D01*
X708813Y370400D01*
X708490Y370249D01*
X708165Y370064D01*
X707838Y369845D01*
X707511Y369593D01*
X707183Y369307D01*
X706854Y368987D01*
Y374320D01*
X707183Y374000D01*
D02*
G37*
G36*
X523128D02*
X523456Y373714D01*
X523783Y373462D01*
X524110Y373243D01*
X524435Y373058D01*
X524758Y372907D01*
X525081Y372789D01*
X525403Y372705D01*
X525724Y372655D01*
X526044Y372638D01*
Y370669D01*
X525724Y370653D01*
X525403Y370602D01*
X525081Y370518D01*
X524758Y370400D01*
X524435Y370249D01*
X524110Y370064D01*
X523783Y369845D01*
X523456Y369593D01*
X523128Y369307D01*
X522799Y368987D01*
Y374320D01*
X523128Y374000D01*
D02*
G37*
G36*
X338876D02*
X339204Y373714D01*
X339531Y373462D01*
X339858Y373243D01*
X340183Y373058D01*
X340507Y372907D01*
X340829Y372789D01*
X341151Y372705D01*
X341472Y372655D01*
X341792Y372638D01*
Y370669D01*
X341472Y370653D01*
X341151Y370602D01*
X340829Y370518D01*
X340507Y370400D01*
X340183Y370249D01*
X339858Y370064D01*
X339531Y369845D01*
X339204Y369593D01*
X338876Y369307D01*
X338547Y368987D01*
Y374320D01*
X338876Y374000D01*
D02*
G37*
G36*
X788105Y371858D02*
X788276Y371717D01*
X788448Y371597D01*
X788619Y371498D01*
X788789Y371421D01*
X788959Y371365D01*
X789128Y371330D01*
X789296Y371316D01*
X789464Y371324D01*
X789632Y371353D01*
X787909Y368634D01*
X787868Y368793D01*
X787814Y368954D01*
X787746Y369116D01*
X787664Y369279D01*
X787569Y369442D01*
X787461Y369607D01*
X787203Y369940D01*
X787053Y370109D01*
X786890Y370278D01*
X787932Y372020D01*
X788105Y371858D01*
D02*
G37*
G36*
X604050D02*
X604221Y371717D01*
X604393Y371597D01*
X604564Y371498D01*
X604734Y371421D01*
X604904Y371365D01*
X605073Y371330D01*
X605241Y371316D01*
X605409Y371324D01*
X605577Y371353D01*
X603854Y368634D01*
X603813Y368793D01*
X603759Y368954D01*
X603691Y369116D01*
X603609Y369279D01*
X603514Y369442D01*
X603406Y369607D01*
X603148Y369940D01*
X602998Y370109D01*
X602835Y370278D01*
X603877Y372020D01*
X604050Y371858D01*
D02*
G37*
G36*
X420007Y370995D02*
X420179Y370852D01*
X420351Y370730D01*
X420522Y370626D01*
X420695Y370542D01*
X420867Y370477D01*
X421040Y370431D01*
X421212Y370405D01*
X421385Y370398D01*
X421559Y370411D01*
X419564Y367884D01*
X419538Y368054D01*
X419497Y368225D01*
X419441Y368394D01*
X419370Y368565D01*
X419284Y368734D01*
X419182Y368904D01*
X419066Y369074D01*
X418934Y369244D01*
X418787Y369413D01*
X418626Y369583D01*
X419836Y371157D01*
X420007Y370995D01*
D02*
G37*
G36*
X209200Y360844D02*
X209226Y360549D01*
X209274Y360265D01*
X209341Y359993D01*
X209428Y359732D01*
X209535Y359483D01*
X209663Y359245D01*
X209810Y359019D01*
X209978Y358804D01*
X210165Y358600D01*
X208773Y357209D01*
X208570Y357396D01*
X208355Y357564D01*
X208129Y357711D01*
X207891Y357839D01*
X207642Y357946D01*
X207381Y358033D01*
X207108Y358100D01*
X206825Y358148D01*
X206529Y358174D01*
X206223Y358181D01*
X209193Y361151D01*
X209200Y360844D01*
D02*
G37*
G36*
X218557Y333069D02*
X218785Y332880D01*
X219019Y332712D01*
X219259Y332567D01*
X219505Y332444D01*
X219757Y332344D01*
X220015Y332266D01*
X220280Y332210D01*
X220550Y332177D01*
X220827Y332166D01*
Y330197D01*
X220550Y330186D01*
X220280Y330152D01*
X220015Y330097D01*
X219757Y330018D01*
X219505Y329918D01*
X219259Y329795D01*
X219019Y329650D01*
X218785Y329483D01*
X218557Y329293D01*
X218335Y329081D01*
Y333281D01*
X218557Y333069D01*
D02*
G37*
G36*
X209200Y330844D02*
X209226Y330549D01*
X209274Y330265D01*
X209341Y329993D01*
X209428Y329732D01*
X209535Y329483D01*
X209663Y329245D01*
X209810Y329019D01*
X209978Y328804D01*
X210165Y328601D01*
X208773Y327209D01*
X208570Y327396D01*
X208355Y327564D01*
X208129Y327711D01*
X207891Y327839D01*
X207642Y327946D01*
X207381Y328033D01*
X207108Y328100D01*
X206825Y328148D01*
X206529Y328174D01*
X206223Y328181D01*
X209193Y331151D01*
X209200Y330844D01*
D02*
G37*
G36*
X209067Y320233D02*
X209042Y319958D01*
X209044Y319690D01*
X209074Y319431D01*
X209130Y319180D01*
X209214Y318937D01*
X209325Y318703D01*
X209462Y318477D01*
X209628Y318259D01*
X209820Y318049D01*
X208107Y316978D01*
X207912Y317160D01*
X207705Y317329D01*
X207485Y317486D01*
X207253Y317631D01*
X207007Y317764D01*
X206749Y317884D01*
X206477Y317992D01*
X206194Y318088D01*
X205587Y318243D01*
X209118Y320517D01*
X209067Y320233D01*
D02*
G37*
G36*
X707183Y309040D02*
X707511Y308754D01*
X707838Y308502D01*
X708165Y308283D01*
X708490Y308098D01*
X708813Y307946D01*
X709136Y307829D01*
X709458Y307745D01*
X709779Y307694D01*
X710099Y307677D01*
Y305709D01*
X709779Y305692D01*
X709458Y305642D01*
X709136Y305557D01*
X708813Y305440D01*
X708490Y305288D01*
X708165Y305103D01*
X707838Y304885D01*
X707511Y304632D01*
X707183Y304346D01*
X706854Y304027D01*
Y309359D01*
X707183Y309040D01*
D02*
G37*
G36*
X523128D02*
X523456Y308754D01*
X523783Y308502D01*
X524110Y308283D01*
X524435Y308098D01*
X524758Y307946D01*
X525081Y307829D01*
X525403Y307745D01*
X525724Y307694D01*
X526044Y307677D01*
Y305709D01*
X525724Y305692D01*
X525403Y305642D01*
X525081Y305557D01*
X524758Y305440D01*
X524435Y305288D01*
X524110Y305103D01*
X523783Y304885D01*
X523456Y304632D01*
X523128Y304346D01*
X522799Y304027D01*
Y309359D01*
X523128Y309040D01*
D02*
G37*
G36*
X338876Y309040D02*
X339204Y308754D01*
X339531Y308501D01*
X339858Y308283D01*
X340183Y308098D01*
X340507Y307946D01*
X340829Y307828D01*
X341151Y307744D01*
X341472Y307694D01*
X341792Y307677D01*
Y305709D01*
X341472Y305692D01*
X341151Y305641D01*
X340829Y305557D01*
X340507Y305439D01*
X340183Y305288D01*
X339858Y305103D01*
X339531Y304884D01*
X339204Y304632D01*
X338876Y304346D01*
X338547Y304027D01*
Y309359D01*
X338876Y309040D01*
D02*
G37*
G36*
X788105Y306897D02*
X788276Y306756D01*
X788448Y306636D01*
X788619Y306538D01*
X788789Y306461D01*
X788959Y306404D01*
X789128Y306369D01*
X789296Y306356D01*
X789464Y306363D01*
X789632Y306392D01*
X787909Y303673D01*
X787868Y303833D01*
X787814Y303993D01*
X787746Y304155D01*
X787664Y304318D01*
X787569Y304482D01*
X787461Y304647D01*
X787203Y304980D01*
X787053Y305148D01*
X786890Y305317D01*
X787932Y307059D01*
X788105Y306897D01*
D02*
G37*
G36*
X604050D02*
X604221Y306756D01*
X604393Y306636D01*
X604564Y306538D01*
X604734Y306461D01*
X604904Y306404D01*
X605073Y306369D01*
X605241Y306356D01*
X605409Y306363D01*
X605577Y306392D01*
X603854Y303673D01*
X603813Y303833D01*
X603759Y303993D01*
X603691Y304155D01*
X603609Y304318D01*
X603514Y304482D01*
X603406Y304647D01*
X603148Y304980D01*
X602998Y305148D01*
X602835Y305317D01*
X603877Y307059D01*
X604050Y306897D01*
D02*
G37*
G36*
X420007Y306034D02*
X420179Y305892D01*
X420351Y305769D01*
X420522Y305665D01*
X420695Y305581D01*
X420867Y305516D01*
X421040Y305470D01*
X421212Y305444D01*
X421385Y305437D01*
X421559Y305450D01*
X419564Y302923D01*
X419538Y303094D01*
X419497Y303264D01*
X419441Y303434D01*
X419370Y303604D01*
X419284Y303774D01*
X419182Y303943D01*
X419066Y304113D01*
X418934Y304283D01*
X418787Y304452D01*
X418626Y304622D01*
X419836Y306196D01*
X420007Y306034D01*
D02*
G37*
G36*
X220165Y273762D02*
X219978Y273558D01*
X219810Y273344D01*
X219663Y273117D01*
X219535Y272879D01*
X219428Y272630D01*
X219341Y272369D01*
X219274Y272097D01*
X219227Y271813D01*
X219199Y271518D01*
X219193Y271211D01*
X216223Y274181D01*
X216529Y274188D01*
X216825Y274215D01*
X217108Y274262D01*
X217381Y274329D01*
X217642Y274416D01*
X217891Y274524D01*
X218129Y274651D01*
X218355Y274799D01*
X218570Y274966D01*
X218774Y275154D01*
X220165Y273762D01*
D02*
G37*
G36*
X707183Y244079D02*
X707511Y243793D01*
X707838Y243541D01*
X708165Y243322D01*
X708490Y243137D01*
X708813Y242986D01*
X709136Y242868D01*
X709458Y242784D01*
X709779Y242733D01*
X710099Y242717D01*
Y240748D01*
X709779Y240731D01*
X709458Y240681D01*
X709136Y240597D01*
X708813Y240479D01*
X708490Y240328D01*
X708165Y240142D01*
X707838Y239924D01*
X707511Y239671D01*
X707183Y239386D01*
X706854Y239066D01*
Y244399D01*
X707183Y244079D01*
D02*
G37*
G36*
X523128D02*
X523456Y243793D01*
X523783Y243541D01*
X524110Y243322D01*
X524435Y243137D01*
X524758Y242986D01*
X525081Y242868D01*
X525403Y242784D01*
X525724Y242733D01*
X526044Y242717D01*
Y240748D01*
X525724Y240731D01*
X525403Y240681D01*
X525081Y240597D01*
X524758Y240479D01*
X524435Y240328D01*
X524110Y240142D01*
X523783Y239924D01*
X523456Y239671D01*
X523128Y239386D01*
X522799Y239066D01*
Y244399D01*
X523128Y244079D01*
D02*
G37*
G36*
X338876D02*
X339204Y243793D01*
X339531Y243541D01*
X339858Y243322D01*
X340183Y243137D01*
X340507Y242986D01*
X340829Y242868D01*
X341151Y242784D01*
X341472Y242733D01*
X341792Y242717D01*
Y240748D01*
X341472Y240731D01*
X341151Y240681D01*
X340829Y240597D01*
X340507Y240479D01*
X340183Y240328D01*
X339858Y240142D01*
X339531Y239924D01*
X339204Y239671D01*
X338876Y239386D01*
X338547Y239066D01*
Y244399D01*
X338876Y244079D01*
D02*
G37*
G36*
X788105Y241936D02*
X788276Y241795D01*
X788448Y241676D01*
X788619Y241577D01*
X788789Y241500D01*
X788959Y241444D01*
X789128Y241409D01*
X789296Y241395D01*
X789464Y241403D01*
X789632Y241431D01*
X787909Y238712D01*
X787868Y238872D01*
X787814Y239033D01*
X787746Y239194D01*
X787664Y239357D01*
X787569Y239521D01*
X787461Y239686D01*
X787203Y240019D01*
X787053Y240187D01*
X786890Y240356D01*
X787932Y242098D01*
X788105Y241936D01*
D02*
G37*
G36*
X604050D02*
X604221Y241795D01*
X604393Y241676D01*
X604564Y241577D01*
X604734Y241500D01*
X604904Y241444D01*
X605073Y241409D01*
X605241Y241395D01*
X605409Y241403D01*
X605577Y241431D01*
X603854Y238712D01*
X603813Y238872D01*
X603759Y239033D01*
X603691Y239194D01*
X603609Y239357D01*
X603514Y239521D01*
X603406Y239686D01*
X603148Y240019D01*
X602998Y240187D01*
X602835Y240356D01*
X603877Y242098D01*
X604050Y241936D01*
D02*
G37*
G36*
X420007Y241073D02*
X420179Y240931D01*
X420351Y240808D01*
X420522Y240705D01*
X420695Y240620D01*
X420867Y240555D01*
X421040Y240510D01*
X421212Y240484D01*
X421385Y240477D01*
X421559Y240489D01*
X419564Y237963D01*
X419538Y238133D01*
X419497Y238303D01*
X419441Y238473D01*
X419370Y238643D01*
X419284Y238813D01*
X419182Y238983D01*
X419066Y239153D01*
X418934Y239322D01*
X418787Y239492D01*
X418626Y239661D01*
X419836Y241235D01*
X420007Y241073D01*
D02*
G37*
G36*
X707183Y177150D02*
X707511Y176864D01*
X707838Y176612D01*
X708165Y176393D01*
X708490Y176208D01*
X708813Y176057D01*
X709136Y175939D01*
X709458Y175855D01*
X709779Y175804D01*
X710099Y175787D01*
Y173819D01*
X709779Y173802D01*
X709458Y173752D01*
X709136Y173668D01*
X708813Y173550D01*
X708490Y173398D01*
X708165Y173213D01*
X707838Y172995D01*
X707511Y172742D01*
X707183Y172457D01*
X706854Y172137D01*
Y177470D01*
X707183Y177150D01*
D02*
G37*
G36*
X523128D02*
X523456Y176864D01*
X523783Y176612D01*
X524110Y176393D01*
X524435Y176208D01*
X524758Y176057D01*
X525081Y175939D01*
X525403Y175855D01*
X525724Y175804D01*
X526044Y175787D01*
Y173819D01*
X525724Y173802D01*
X525403Y173752D01*
X525081Y173668D01*
X524758Y173550D01*
X524435Y173398D01*
X524110Y173213D01*
X523783Y172995D01*
X523456Y172742D01*
X523128Y172457D01*
X522799Y172137D01*
Y177470D01*
X523128Y177150D01*
D02*
G37*
G36*
X338876D02*
X339204Y176864D01*
X339531Y176612D01*
X339858Y176393D01*
X340183Y176208D01*
X340507Y176057D01*
X340829Y175939D01*
X341151Y175855D01*
X341472Y175804D01*
X341792Y175787D01*
Y173819D01*
X341472Y173802D01*
X341151Y173752D01*
X340829Y173668D01*
X340507Y173550D01*
X340183Y173398D01*
X339858Y173213D01*
X339531Y172995D01*
X339204Y172742D01*
X338876Y172457D01*
X338547Y172137D01*
Y177470D01*
X338876Y177150D01*
D02*
G37*
G36*
X788105Y175007D02*
X788276Y174866D01*
X788448Y174747D01*
X788619Y174648D01*
X788789Y174571D01*
X788959Y174515D01*
X789128Y174480D01*
X789296Y174466D01*
X789464Y174474D01*
X789632Y174502D01*
X787909Y171783D01*
X787868Y171943D01*
X787814Y172104D01*
X787746Y172265D01*
X787664Y172428D01*
X787569Y172592D01*
X787461Y172757D01*
X787203Y173090D01*
X787053Y173258D01*
X786890Y173427D01*
X787932Y175169D01*
X788105Y175007D01*
D02*
G37*
G36*
X604050D02*
X604221Y174866D01*
X604393Y174747D01*
X604564Y174648D01*
X604734Y174571D01*
X604904Y174515D01*
X605073Y174480D01*
X605241Y174466D01*
X605409Y174474D01*
X605577Y174502D01*
X603854Y171783D01*
X603813Y171943D01*
X603759Y172104D01*
X603691Y172265D01*
X603609Y172428D01*
X603514Y172592D01*
X603406Y172757D01*
X603148Y173090D01*
X602998Y173258D01*
X602835Y173427D01*
X603877Y175169D01*
X604050Y175007D01*
D02*
G37*
G36*
X420007Y174144D02*
X420179Y174002D01*
X420351Y173879D01*
X420522Y173776D01*
X420695Y173691D01*
X420867Y173626D01*
X421040Y173581D01*
X421212Y173555D01*
X421385Y173548D01*
X421559Y173560D01*
X419564Y171034D01*
X419538Y171204D01*
X419497Y171374D01*
X419441Y171544D01*
X419370Y171714D01*
X419284Y171884D01*
X419182Y172054D01*
X419066Y172223D01*
X418934Y172393D01*
X418787Y172563D01*
X418626Y172732D01*
X419836Y174306D01*
X420007Y174144D01*
D02*
G37*
G36*
X139370Y113976D02*
X158366D01*
Y88583D01*
X165886D01*
Y93445D01*
X185886D01*
Y113976D01*
X358286D01*
Y110578D01*
X358588Y110275D01*
X368971D01*
Y110545D01*
X369252Y110827D01*
Y113976D01*
X542559D01*
Y110797D01*
X542538Y110775D01*
X542840Y110473D01*
Y110275D01*
X553223D01*
X553504Y110557D01*
Y113976D01*
X726593D01*
Y111562D01*
X726895Y111260D01*
X737278D01*
Y111457D01*
X737580Y111760D01*
X737559Y111781D01*
Y113976D01*
X820472D01*
Y33071D01*
X473039D01*
X472635Y34313D01*
X471763Y36026D01*
X470633Y37581D01*
X469274Y38940D01*
X467719Y40070D01*
X466006Y40942D01*
X464178Y41536D01*
X462280Y41837D01*
X460358D01*
X458460Y41536D01*
X456632Y40942D01*
X454919Y40070D01*
X453364Y38940D01*
X452005Y37581D01*
X450875Y36026D01*
X450002Y34313D01*
X449599Y33071D01*
X52756D01*
Y90228D01*
X54035D01*
Y95091D01*
X74035D01*
Y127886D01*
X54035D01*
Y132748D01*
X52756D01*
Y138976D01*
X139370D01*
Y113976D01*
D02*
G37*
%LPC*%
G36*
X124508Y133890D02*
X113844D01*
X113563Y133608D01*
Y123226D01*
X113833D01*
X114114Y122945D01*
X124508D01*
Y133890D01*
D02*
G37*
G36*
X280395Y110573D02*
X279684D01*
X278997Y110389D01*
X278382Y110034D01*
X277879Y109531D01*
X277524Y108916D01*
X277340Y108229D01*
Y107519D01*
X277524Y106832D01*
X277879Y106217D01*
X278382Y105714D01*
X278997Y105359D01*
X279684Y105175D01*
X280395D01*
X281081Y105359D01*
X281697Y105714D01*
X282199Y106217D01*
X282555Y106832D01*
X282738Y107519D01*
Y108229D01*
X282555Y108916D01*
X282199Y109531D01*
X281697Y110034D01*
X281081Y110389D01*
X280395Y110573D01*
D02*
G37*
G36*
Y96794D02*
X279684D01*
X278997Y96610D01*
X278382Y96254D01*
X277879Y95752D01*
X277524Y95136D01*
X277340Y94450D01*
Y93739D01*
X277524Y93053D01*
X277879Y92437D01*
X278382Y91935D01*
X278997Y91579D01*
X279684Y91395D01*
X280395D01*
X281081Y91579D01*
X281697Y91935D01*
X282199Y92437D01*
X282555Y93053D01*
X282738Y93739D01*
Y94450D01*
X282555Y95136D01*
X282199Y95752D01*
X281697Y96254D01*
X281081Y96610D01*
X280395Y96794D01*
D02*
G37*
G36*
Y83014D02*
X279684D01*
X278997Y82830D01*
X278382Y82475D01*
X277879Y81972D01*
X277524Y81357D01*
X277340Y80670D01*
Y79959D01*
X277524Y79273D01*
X277879Y78658D01*
X278382Y78155D01*
X278997Y77800D01*
X279684Y77616D01*
X280395D01*
X281081Y77800D01*
X281697Y78155D01*
X282199Y78658D01*
X282555Y79273D01*
X282738Y79959D01*
Y80670D01*
X282555Y81357D01*
X282199Y81972D01*
X281697Y82475D01*
X281081Y82830D01*
X280395Y83014D01*
D02*
G37*
G36*
X278574Y67723D02*
X277332D01*
X276114Y67480D01*
X274966Y67005D01*
X273933Y66315D01*
X273055Y65437D01*
X272365Y64404D01*
X271890Y63257D01*
X271647Y62038D01*
Y60796D01*
X271890Y59578D01*
X272365Y58430D01*
X273055Y57398D01*
X273933Y56520D01*
X274966Y55829D01*
X276114Y55354D01*
X277332Y55112D01*
X278574D01*
X279792Y55354D01*
X280940Y55829D01*
X281972Y56520D01*
X282851Y57398D01*
X283541Y58430D01*
X284016Y59578D01*
X284258Y60796D01*
Y62038D01*
X284016Y63257D01*
X283541Y64404D01*
X282851Y65437D01*
X281972Y66315D01*
X280940Y67005D01*
X279792Y67480D01*
X278574Y67723D01*
D02*
G37*
G36*
X766201Y70925D02*
X733405D01*
Y50925D01*
X728543D01*
Y43406D01*
X771063D01*
Y50925D01*
X766201D01*
Y70925D01*
D02*
G37*
G36*
X397894Y70748D02*
X365098D01*
Y63907D01*
X364969Y63778D01*
X364758Y63268D01*
Y62717D01*
X364969Y62208D01*
X365098Y62078D01*
Y57608D01*
X364969Y57478D01*
X364758Y56969D01*
Y56418D01*
X364969Y55908D01*
X365098Y55779D01*
Y51309D01*
X364969Y51179D01*
X364790Y50748D01*
X360236D01*
Y48010D01*
X360033Y47520D01*
Y46969D01*
X360236Y46479D01*
Y43228D01*
X402756D01*
Y50748D01*
X397894D01*
Y70748D01*
D02*
G37*
G36*
X582189Y70394D02*
X549394D01*
Y50394D01*
X544531D01*
Y42874D01*
X587051D01*
Y50394D01*
X582189D01*
Y70394D01*
D02*
G37*
%LPD*%
D54*
X263594Y355599D02*
X268406Y350787D01*
X211775Y355599D02*
X263594D01*
X206193Y361181D02*
X211775Y355599D01*
X210577Y326797D02*
X247317D01*
X255127Y318987D01*
X206193Y331181D02*
X210577Y326797D01*
X489180Y386122D02*
X510153Y365148D01*
X206193Y381181D02*
X211134Y386122D01*
X489180D01*
X209679Y316797D02*
X224049D01*
X206193Y320284D02*
Y321181D01*
Y320284D02*
X209679Y316797D01*
X224049D02*
X244798Y296048D01*
X451154D01*
X462586Y307480D01*
X255127Y318987D02*
X429205D01*
X444754Y303438D01*
Y299448D02*
Y303438D01*
X246063Y339148D02*
X442360D01*
X216193Y331181D02*
X238096D01*
X246063Y339148D01*
X216193Y271181D02*
X220602Y275590D01*
X587211D02*
X617953Y244848D01*
X220602Y275590D02*
X587211D01*
X646153Y365148D02*
X647453Y366448D01*
X510153Y365148D02*
X646153D01*
X335827Y436614D02*
X417946D01*
X421470Y433091D01*
X421850D01*
X335827Y371654D02*
X417946D01*
X421470Y368130D01*
X421850D01*
X335827Y306693D02*
X417946D01*
X421470Y303169D01*
X421850D01*
X335827Y241732D02*
X417946D01*
X421470Y238209D01*
X421850D01*
X335827Y174803D02*
X417946D01*
X421470Y171280D01*
X421850D01*
X520079Y436614D02*
X602851D01*
X605391Y434075D01*
X606102D01*
X520079Y371654D02*
X602851D01*
X605391Y369114D01*
X606102D01*
X520079Y306693D02*
X602851D01*
X605391Y304154D01*
X606102D01*
X520079Y241732D02*
X602851D01*
X605391Y239193D01*
X606102D01*
X520079Y174803D02*
X602851D01*
X605391Y172264D01*
X606102D01*
X704134Y436614D02*
X786906D01*
X789446Y434075D01*
X790157D01*
X704134Y371654D02*
X786906D01*
X789446Y369114D01*
X790157D01*
X704134Y306693D02*
X786906D01*
X789446Y304154D01*
X790157D01*
X704134Y241732D02*
X786906D01*
X789446Y239193D01*
X790157D01*
X704134Y174803D02*
X786906D01*
X789446Y172264D01*
X790157D01*
D55*
X343701Y151181D02*
X357087Y137795D01*
X514567D01*
X527953Y151181D01*
X541339Y137795D01*
X698622D01*
X712008Y151181D01*
D56*
X461319Y462598D02*
D03*
Y29626D02*
D03*
X836614Y29528D02*
D03*
Y462598D02*
D03*
X29528D02*
D03*
Y29528D02*
D03*
D57*
X296063Y61417D02*
D03*
X277953D02*
D03*
D58*
X192087Y435197D02*
D03*
Y425197D02*
D03*
X182087Y435197D02*
D03*
Y425197D02*
D03*
X216193Y411181D02*
D03*
Y401181D02*
D03*
Y391181D02*
D03*
Y381181D02*
D03*
Y371181D02*
D03*
Y361181D02*
D03*
X206193Y411181D02*
D03*
Y401181D02*
D03*
Y391181D02*
D03*
Y381181D02*
D03*
Y371181D02*
D03*
Y361181D02*
D03*
X216193Y351181D02*
D03*
X206193D02*
D03*
X216193Y341181D02*
D03*
Y331181D02*
D03*
Y321181D02*
D03*
Y311181D02*
D03*
Y301181D02*
D03*
Y291181D02*
D03*
X206193Y341181D02*
D03*
Y331181D02*
D03*
Y321181D02*
D03*
Y311181D02*
D03*
Y301181D02*
D03*
Y291181D02*
D03*
X216193Y281181D02*
D03*
X206193D02*
D03*
X216193Y271181D02*
D03*
Y261181D02*
D03*
Y251181D02*
D03*
Y241181D02*
D03*
Y231181D02*
D03*
Y221181D02*
D03*
X206193Y271181D02*
D03*
Y261181D02*
D03*
Y251181D02*
D03*
Y241181D02*
D03*
Y231181D02*
D03*
Y221181D02*
D03*
D60*
X211193Y202008D02*
D03*
Y430354D02*
D03*
X18279D02*
D03*
Y202008D02*
D03*
D61*
X343701Y412992D02*
D03*
X575984Y198425D02*
D03*
Y151181D02*
D03*
X527953D02*
D03*
X575984Y460236D02*
D03*
Y412992D02*
D03*
X527953D02*
D03*
X575984Y395276D02*
D03*
Y348032D02*
D03*
X527953D02*
D03*
X575984Y330315D02*
D03*
Y283071D02*
D03*
X527953D02*
D03*
X575984Y265354D02*
D03*
Y218110D02*
D03*
X527953D02*
D03*
X391732Y198425D02*
D03*
Y151181D02*
D03*
X343701D02*
D03*
X391732Y265354D02*
D03*
Y218110D02*
D03*
X343701D02*
D03*
X391732Y330315D02*
D03*
Y283071D02*
D03*
X343701D02*
D03*
X391732Y395276D02*
D03*
Y348032D02*
D03*
X343701D02*
D03*
X391732Y460236D02*
D03*
Y412992D02*
D03*
X712008Y151181D02*
D03*
X760039D02*
D03*
Y198425D02*
D03*
X712008Y218110D02*
D03*
X760039D02*
D03*
Y265354D02*
D03*
X712008Y283071D02*
D03*
X760039D02*
D03*
Y330315D02*
D03*
X712008Y348032D02*
D03*
X760039D02*
D03*
Y395276D02*
D03*
X712008Y412992D02*
D03*
X760039D02*
D03*
Y460236D02*
D03*
D63*
X290039Y94094D02*
D03*
X280039D02*
D03*
X290039Y107874D02*
D03*
X280039D02*
D03*
X606102Y444075D02*
D03*
Y434075D02*
D03*
Y314154D02*
D03*
Y304154D02*
D03*
Y182264D02*
D03*
Y172264D02*
D03*
Y249193D02*
D03*
Y239193D02*
D03*
Y379114D02*
D03*
Y369114D02*
D03*
X790157Y379114D02*
D03*
Y369114D02*
D03*
X421850Y181280D02*
D03*
Y171280D02*
D03*
Y248209D02*
D03*
Y238209D02*
D03*
Y313169D02*
D03*
Y303169D02*
D03*
Y378130D02*
D03*
Y368130D02*
D03*
Y443091D02*
D03*
Y433091D02*
D03*
X290039Y80315D02*
D03*
X280039D02*
D03*
X790157Y172264D02*
D03*
Y182264D02*
D03*
Y239193D02*
D03*
Y249193D02*
D03*
Y304154D02*
D03*
Y314154D02*
D03*
Y434075D02*
D03*
Y444075D02*
D03*
D64*
X520079Y174803D02*
D03*
Y436614D02*
D03*
Y371654D02*
D03*
Y306693D02*
D03*
Y241732D02*
D03*
X335827Y174803D02*
D03*
Y241732D02*
D03*
Y306693D02*
D03*
Y371654D02*
D03*
Y436614D02*
D03*
X704134Y174803D02*
D03*
Y241732D02*
D03*
Y306693D02*
D03*
Y371654D02*
D03*
Y436614D02*
D03*
D65*
X527953Y198425D02*
D03*
Y460236D02*
D03*
Y395276D02*
D03*
Y330315D02*
D03*
Y265354D02*
D03*
X343701Y198425D02*
D03*
Y265354D02*
D03*
Y330315D02*
D03*
Y395276D02*
D03*
Y460236D02*
D03*
X712008Y198425D02*
D03*
Y265354D02*
D03*
Y330315D02*
D03*
Y395276D02*
D03*
Y460236D02*
D03*
D67*
X175592Y97638D02*
D03*
X181891D02*
D03*
X385041Y56693D02*
D03*
X231434Y129232D02*
D03*
X360236Y116831D02*
D03*
X735827Y119488D02*
D03*
X731737Y117365D02*
D03*
X728248Y118898D02*
D03*
X551970Y116536D02*
D03*
X548821D02*
D03*
X545671D02*
D03*
X366143D02*
D03*
X362994D02*
D03*
X122049Y132284D02*
D03*
Y125985D02*
D03*
X118899Y132284D02*
D03*
X120474Y129135D02*
D03*
X118899Y125985D02*
D03*
X235435D02*
D03*
X233860Y129135D02*
D03*
X232285Y125985D02*
D03*
X128348Y81890D02*
D03*
X129923Y78741D02*
D03*
X128348Y75591D02*
D03*
X129923Y72442D02*
D03*
X128348Y69292D02*
D03*
X129923Y66142D02*
D03*
X128348Y62993D02*
D03*
X125198Y81890D02*
D03*
X126773Y78741D02*
D03*
X125198Y75591D02*
D03*
X126773Y72442D02*
D03*
X125198Y69292D02*
D03*
X126773Y66142D02*
D03*
X125198Y62993D02*
D03*
X122049Y81890D02*
D03*
X123624Y78741D02*
D03*
X122049Y75591D02*
D03*
X123624Y72442D02*
D03*
X122049Y69292D02*
D03*
X123624Y66142D02*
D03*
X122049Y62993D02*
D03*
X118899Y81890D02*
D03*
X120474Y78741D02*
D03*
X118899Y75591D02*
D03*
X120474Y72442D02*
D03*
X118899Y69292D02*
D03*
X120474Y66142D02*
D03*
X118899Y62993D02*
D03*
X115750Y81890D02*
D03*
X117324Y78741D02*
D03*
X115750Y75591D02*
D03*
X117324Y72442D02*
D03*
X115750Y69292D02*
D03*
X117324Y66142D02*
D03*
X115750Y62993D02*
D03*
X112600Y81890D02*
D03*
X114175Y78741D02*
D03*
X112600Y75591D02*
D03*
X114175Y72442D02*
D03*
X112600Y69292D02*
D03*
X114175Y66142D02*
D03*
X112600Y62993D02*
D03*
X109450Y81890D02*
D03*
X111025Y78741D02*
D03*
X109450Y75591D02*
D03*
X111025Y72442D02*
D03*
X109450Y69292D02*
D03*
X111025Y66142D02*
D03*
X109450Y62993D02*
D03*
X106301Y94489D02*
D03*
X107876Y78741D02*
D03*
Y72442D02*
D03*
Y66142D02*
D03*
X103151Y94489D02*
D03*
X104726Y91339D02*
D03*
X100001Y94489D02*
D03*
X101576Y91339D02*
D03*
X96852Y94489D02*
D03*
X98427Y91339D02*
D03*
X232285Y81890D02*
D03*
X233860Y78741D02*
D03*
X232285Y75591D02*
D03*
X233860Y72442D02*
D03*
X232285Y69292D02*
D03*
X233860Y66142D02*
D03*
X232285Y62993D02*
D03*
X229135Y81890D02*
D03*
X230710Y78741D02*
D03*
X229135Y75591D02*
D03*
X230710Y72442D02*
D03*
X229135Y69292D02*
D03*
X230710Y66142D02*
D03*
X229135Y62993D02*
D03*
X225986Y81890D02*
D03*
X227561Y78741D02*
D03*
X225986Y75591D02*
D03*
X227561Y72442D02*
D03*
X225986Y69292D02*
D03*
X227561Y66142D02*
D03*
X225986Y62993D02*
D03*
X222836Y81890D02*
D03*
X224411Y78741D02*
D03*
X222836Y75591D02*
D03*
X224411Y72442D02*
D03*
X222836Y69292D02*
D03*
X224411Y66142D02*
D03*
X222836Y62993D02*
D03*
X219687Y81890D02*
D03*
X221261Y78741D02*
D03*
X219687Y75591D02*
D03*
X221261Y72442D02*
D03*
X219687Y69292D02*
D03*
X221261Y66142D02*
D03*
X219687Y62993D02*
D03*
X218112Y91339D02*
D03*
X216537Y88190D02*
D03*
X214962Y91339D02*
D03*
X213387Y88190D02*
D03*
X211813Y91339D02*
D03*
X210238Y88190D02*
D03*
X767719Y47245D02*
D03*
X764569Y66142D02*
D03*
Y59843D02*
D03*
Y53544D02*
D03*
Y47245D02*
D03*
X762994Y69292D02*
D03*
X761419Y66142D02*
D03*
X762994Y62993D02*
D03*
X761419Y59843D02*
D03*
X762994Y56693D02*
D03*
X761419Y53544D02*
D03*
X762994Y50394D02*
D03*
X761419Y47245D02*
D03*
X759845Y69292D02*
D03*
X758270Y66142D02*
D03*
X759845Y62993D02*
D03*
X758270Y59843D02*
D03*
X759845Y56693D02*
D03*
X758270Y53544D02*
D03*
X759845Y50394D02*
D03*
X758270Y47245D02*
D03*
X756695Y69292D02*
D03*
X755120Y66142D02*
D03*
X756695Y62993D02*
D03*
X755120Y59843D02*
D03*
X756695Y56693D02*
D03*
X755120Y53544D02*
D03*
X756695Y50394D02*
D03*
X755120Y47245D02*
D03*
X753546Y69292D02*
D03*
X751971Y66142D02*
D03*
X753546Y62993D02*
D03*
X751971Y59843D02*
D03*
X753546Y56693D02*
D03*
X751971Y53544D02*
D03*
X753546Y50394D02*
D03*
X750396Y69292D02*
D03*
X748821Y66142D02*
D03*
X750396Y62993D02*
D03*
X748821Y59843D02*
D03*
X750396Y56693D02*
D03*
X748821Y53544D02*
D03*
X750396Y50394D02*
D03*
X747246Y69292D02*
D03*
X745672Y66142D02*
D03*
X747246Y62993D02*
D03*
X745672Y59843D02*
D03*
X747246Y56693D02*
D03*
X745672Y53544D02*
D03*
X747246Y50394D02*
D03*
X745672Y47245D02*
D03*
X744097Y69292D02*
D03*
X742522Y66142D02*
D03*
X744097Y62993D02*
D03*
X742522Y59843D02*
D03*
X744097Y56693D02*
D03*
X742522Y53544D02*
D03*
X744097Y50394D02*
D03*
X742522Y47245D02*
D03*
X740947Y69292D02*
D03*
X739372Y66142D02*
D03*
X740947Y62993D02*
D03*
X739372Y59843D02*
D03*
X740947Y56693D02*
D03*
X739372Y53544D02*
D03*
X740947Y50394D02*
D03*
X739372Y47245D02*
D03*
X737797Y69292D02*
D03*
X736223Y66142D02*
D03*
X737797Y62993D02*
D03*
X736223Y59843D02*
D03*
X737797Y56693D02*
D03*
X736223Y53544D02*
D03*
X737797Y50394D02*
D03*
X736223Y47245D02*
D03*
X733073D02*
D03*
X583467D02*
D03*
X580317Y66142D02*
D03*
X578742Y62993D02*
D03*
X580317Y59843D02*
D03*
Y53544D02*
D03*
X578742Y50394D02*
D03*
X580317Y47245D02*
D03*
X577167Y66142D02*
D03*
X575593Y62993D02*
D03*
X577167Y59843D02*
D03*
X575593Y56693D02*
D03*
X577167Y53544D02*
D03*
X575593Y50394D02*
D03*
X577167Y47245D02*
D03*
X574018Y66142D02*
D03*
X572443Y62993D02*
D03*
X574018Y59843D02*
D03*
X572443Y56693D02*
D03*
X574018Y53544D02*
D03*
X572443Y50394D02*
D03*
X574018Y47245D02*
D03*
X570868Y66142D02*
D03*
X569293Y62993D02*
D03*
X570868Y59843D02*
D03*
X569293Y56693D02*
D03*
X570868Y53544D02*
D03*
X569293Y50394D02*
D03*
X570868Y47245D02*
D03*
X567719Y66142D02*
D03*
X566144Y62993D02*
D03*
X567719Y59843D02*
D03*
X566144Y56693D02*
D03*
X567719Y53544D02*
D03*
X566144Y50394D02*
D03*
X564569Y66142D02*
D03*
X562994Y62993D02*
D03*
X564569Y59843D02*
D03*
X562994Y56693D02*
D03*
X564569Y53544D02*
D03*
X562994Y50394D02*
D03*
X561419Y66142D02*
D03*
X559844Y62993D02*
D03*
X561419Y59843D02*
D03*
X559844Y56693D02*
D03*
X561419Y53544D02*
D03*
X559844Y50394D02*
D03*
X561419Y47245D02*
D03*
X558270Y66142D02*
D03*
X556695Y62993D02*
D03*
X558270Y59843D02*
D03*
X556695Y56693D02*
D03*
X558270Y53544D02*
D03*
X556695Y50394D02*
D03*
X558270Y47245D02*
D03*
X555120Y66142D02*
D03*
X553545Y62993D02*
D03*
X555120Y59843D02*
D03*
X553545Y56693D02*
D03*
X555120Y53544D02*
D03*
X553545Y50394D02*
D03*
X555120Y47245D02*
D03*
X551970Y66142D02*
D03*
Y59843D02*
D03*
Y53544D02*
D03*
Y47245D02*
D03*
X548821D02*
D03*
X71655Y122835D02*
D03*
Y116536D02*
D03*
Y110237D02*
D03*
Y103938D02*
D03*
Y97638D02*
D03*
X70080Y125985D02*
D03*
X68505Y122835D02*
D03*
X70080Y119686D02*
D03*
X68505Y116536D02*
D03*
X70080Y113386D02*
D03*
X68505Y110237D02*
D03*
X70080Y107087D02*
D03*
X68505Y103938D02*
D03*
X70080Y100788D02*
D03*
X68505Y97638D02*
D03*
X66931Y125985D02*
D03*
X65356Y122835D02*
D03*
X66931Y119686D02*
D03*
X65356Y116536D02*
D03*
X66931Y113386D02*
D03*
X65356Y110237D02*
D03*
X66931Y107087D02*
D03*
X65356Y103938D02*
D03*
X66931Y100788D02*
D03*
X65356Y97638D02*
D03*
X63781Y125985D02*
D03*
X62206Y122835D02*
D03*
X63781Y119686D02*
D03*
X62206Y116536D02*
D03*
X63781Y113386D02*
D03*
X62206Y110237D02*
D03*
X63781Y107087D02*
D03*
X62206Y103938D02*
D03*
X63781Y100788D02*
D03*
X62206Y97638D02*
D03*
X60631Y125985D02*
D03*
X59057Y122835D02*
D03*
X60631Y119686D02*
D03*
X59057Y116536D02*
D03*
X60631Y113386D02*
D03*
X59057Y110237D02*
D03*
X60631Y107087D02*
D03*
X59057Y103938D02*
D03*
X60631Y100788D02*
D03*
X59057Y97638D02*
D03*
X57482Y125985D02*
D03*
X55907Y122835D02*
D03*
X57482Y119686D02*
D03*
X55907Y116536D02*
D03*
X57482Y113386D02*
D03*
X55907Y110237D02*
D03*
X57482Y107087D02*
D03*
X55907Y103938D02*
D03*
X57482Y100788D02*
D03*
X55907Y97638D02*
D03*
X54332Y125985D02*
D03*
X52757Y122835D02*
D03*
X54332Y119686D02*
D03*
X52757Y116536D02*
D03*
X54332Y113386D02*
D03*
X52757Y110237D02*
D03*
X54332Y107087D02*
D03*
X52757Y103938D02*
D03*
X54332Y100788D02*
D03*
X52757Y97638D02*
D03*
X49608Y129135D02*
D03*
X51183Y125985D02*
D03*
X49608Y122835D02*
D03*
X51183Y119686D02*
D03*
X49608Y116536D02*
D03*
X51183Y107087D02*
D03*
X49608Y103938D02*
D03*
X51183Y100788D02*
D03*
X49608Y97638D02*
D03*
X51183Y94489D02*
D03*
X49608Y91339D02*
D03*
X181891Y122835D02*
D03*
X183466Y119686D02*
D03*
X181891Y116536D02*
D03*
X183466Y113386D02*
D03*
X181891Y110237D02*
D03*
X183466Y107087D02*
D03*
X181891Y103938D02*
D03*
X183466Y100788D02*
D03*
X178742Y122835D02*
D03*
X180316Y119686D02*
D03*
X178742Y116536D02*
D03*
X180316Y113386D02*
D03*
X178742Y110237D02*
D03*
X180316Y107087D02*
D03*
X178742Y103938D02*
D03*
X180316Y100788D02*
D03*
X178742Y97638D02*
D03*
X175592Y122835D02*
D03*
X177167Y119686D02*
D03*
X175592Y116536D02*
D03*
X177167Y113386D02*
D03*
X175592Y110237D02*
D03*
X177167Y107087D02*
D03*
X175592Y103938D02*
D03*
X177167Y100788D02*
D03*
X172442Y122835D02*
D03*
X174017Y119686D02*
D03*
X172442Y116536D02*
D03*
X174017Y113386D02*
D03*
X172442Y110237D02*
D03*
X174017Y107087D02*
D03*
X172442Y103938D02*
D03*
X174017Y100788D02*
D03*
X172442Y97638D02*
D03*
X169293Y122835D02*
D03*
X170868Y119686D02*
D03*
X169293Y116536D02*
D03*
X170868Y113386D02*
D03*
X169293Y110237D02*
D03*
X170868Y107087D02*
D03*
X169293Y103938D02*
D03*
X170868Y100788D02*
D03*
X169293Y97638D02*
D03*
X166143Y122835D02*
D03*
X167718Y119686D02*
D03*
X166143Y116536D02*
D03*
X167718Y113386D02*
D03*
X166143Y110237D02*
D03*
X167718Y107087D02*
D03*
X166143Y103938D02*
D03*
X167718Y100788D02*
D03*
X166143Y97638D02*
D03*
X162994Y129135D02*
D03*
X164568Y125985D02*
D03*
X162994Y122835D02*
D03*
X164568Y119686D02*
D03*
X162994Y116536D02*
D03*
X164568Y113386D02*
D03*
Y107087D02*
D03*
X162994Y103938D02*
D03*
X164568Y100788D02*
D03*
X162994Y97638D02*
D03*
X164568Y94489D02*
D03*
X162994Y91339D02*
D03*
X159844Y129135D02*
D03*
X161419Y125985D02*
D03*
X159844Y122835D02*
D03*
X161419Y119686D02*
D03*
X159844Y116536D02*
D03*
X161419Y113386D02*
D03*
Y107087D02*
D03*
X159844Y103938D02*
D03*
X161419Y100788D02*
D03*
X159844Y97638D02*
D03*
X161419Y94489D02*
D03*
X159844Y91339D02*
D03*
X399214Y47245D02*
D03*
X396065Y66142D02*
D03*
Y59843D02*
D03*
Y53544D02*
D03*
Y47245D02*
D03*
X392915Y66142D02*
D03*
X394490Y62993D02*
D03*
X392915Y59843D02*
D03*
X394490Y56693D02*
D03*
X392915Y53544D02*
D03*
X394490Y50394D02*
D03*
X392915Y47245D02*
D03*
X389766Y66142D02*
D03*
X391340Y62993D02*
D03*
X389766Y59843D02*
D03*
X391340Y56693D02*
D03*
X389766Y53544D02*
D03*
X391340Y50394D02*
D03*
X389766Y47245D02*
D03*
X386616Y66142D02*
D03*
X388191Y62993D02*
D03*
X386616Y59843D02*
D03*
X388191Y56693D02*
D03*
X386616Y53544D02*
D03*
X388191Y50394D02*
D03*
X386616Y47245D02*
D03*
X383466Y66142D02*
D03*
X385041Y62993D02*
D03*
X383466Y59843D02*
D03*
Y53544D02*
D03*
X385041Y50394D02*
D03*
X380317Y66142D02*
D03*
X381891Y62993D02*
D03*
X380317Y59843D02*
D03*
X381891Y56693D02*
D03*
X380317Y53544D02*
D03*
X381891Y50394D02*
D03*
X377167Y66142D02*
D03*
X378742Y62993D02*
D03*
X377167Y59843D02*
D03*
X378742Y56693D02*
D03*
X377167Y53544D02*
D03*
X378742Y50394D02*
D03*
X377167Y47245D02*
D03*
X374018Y66142D02*
D03*
X375592Y62993D02*
D03*
X374018Y59843D02*
D03*
X375592Y56693D02*
D03*
X374018Y53544D02*
D03*
X375592Y50394D02*
D03*
X374018Y47245D02*
D03*
X370868Y66142D02*
D03*
X372443Y62993D02*
D03*
X370868Y59843D02*
D03*
X372443Y56693D02*
D03*
X370868Y53544D02*
D03*
X372443Y50394D02*
D03*
X370868Y47245D02*
D03*
X367718Y66142D02*
D03*
X369293Y62993D02*
D03*
X367718Y59843D02*
D03*
X369293Y56693D02*
D03*
X367718Y53544D02*
D03*
X369293Y50394D02*
D03*
X367718Y47245D02*
D03*
X366143Y62993D02*
D03*
Y56693D02*
D03*
Y50394D02*
D03*
X364569Y47245D02*
D03*
X361419D02*
D03*
X796065Y91339D02*
D03*
X797640Y88190D02*
D03*
X796065Y85040D02*
D03*
X797640Y81890D02*
D03*
X796065Y78741D02*
D03*
X792916Y91339D02*
D03*
X794490Y88190D02*
D03*
X792916Y85040D02*
D03*
X794490Y81890D02*
D03*
X792916Y78741D02*
D03*
X789766Y91339D02*
D03*
X791341Y88190D02*
D03*
X789766Y85040D02*
D03*
X791341Y81890D02*
D03*
X789766Y78741D02*
D03*
X786616Y91339D02*
D03*
X788191Y88190D02*
D03*
X786616Y85040D02*
D03*
X788191Y81890D02*
D03*
X786616Y78741D02*
D03*
X783467Y91339D02*
D03*
X785042Y88190D02*
D03*
X783467Y85040D02*
D03*
X785042Y81890D02*
D03*
X783467Y78741D02*
D03*
X780317Y91339D02*
D03*
X781892Y88190D02*
D03*
X780317Y85040D02*
D03*
X781892Y81890D02*
D03*
X780317Y78741D02*
D03*
X777168Y91339D02*
D03*
X778742Y88190D02*
D03*
X777168Y85040D02*
D03*
X778742Y81890D02*
D03*
X777168Y78741D02*
D03*
X774018Y91339D02*
D03*
X775593Y88190D02*
D03*
X774018Y85040D02*
D03*
X775593Y81890D02*
D03*
X774018Y78741D02*
D03*
X770868Y97638D02*
D03*
X769294Y100788D02*
D03*
X767719Y97638D02*
D03*
X769294Y94489D02*
D03*
X613388Y91339D02*
D03*
X614963Y88190D02*
D03*
X613388Y85040D02*
D03*
X614963Y81890D02*
D03*
X613388Y78741D02*
D03*
X610238Y91339D02*
D03*
X611813Y88190D02*
D03*
X610238Y85040D02*
D03*
X611813Y81890D02*
D03*
X610238Y78741D02*
D03*
X607089Y91339D02*
D03*
X608664Y88190D02*
D03*
X607089Y85040D02*
D03*
X608664Y81890D02*
D03*
X607089Y78741D02*
D03*
X603939Y91339D02*
D03*
X605514Y88190D02*
D03*
X603939Y85040D02*
D03*
X605514Y81890D02*
D03*
X603939Y78741D02*
D03*
X600789Y91339D02*
D03*
X602364Y88190D02*
D03*
X600789Y85040D02*
D03*
X602364Y81890D02*
D03*
X600789Y78741D02*
D03*
X597640Y91339D02*
D03*
X599215Y88190D02*
D03*
X597640Y85040D02*
D03*
X599215Y81890D02*
D03*
X597640Y78741D02*
D03*
X594490Y91339D02*
D03*
X596065Y88190D02*
D03*
X594490Y85040D02*
D03*
X596065Y81890D02*
D03*
X594490Y78741D02*
D03*
X591341Y91339D02*
D03*
X592915Y88190D02*
D03*
X591341Y85040D02*
D03*
X592915Y81890D02*
D03*
X591341Y78741D02*
D03*
X586616Y100788D02*
D03*
X585041Y97638D02*
D03*
X586616Y94489D02*
D03*
X583467Y100788D02*
D03*
Y94489D02*
D03*
X427561Y91339D02*
D03*
X429136Y88190D02*
D03*
X427561Y85040D02*
D03*
X429136Y81890D02*
D03*
X427561Y78741D02*
D03*
X424411Y91339D02*
D03*
X425986Y88190D02*
D03*
X424411Y85040D02*
D03*
X425986Y81890D02*
D03*
X424411Y78741D02*
D03*
X421262Y91339D02*
D03*
X422836Y88190D02*
D03*
X421262Y85040D02*
D03*
X422836Y81890D02*
D03*
X421262Y78741D02*
D03*
X418112Y91339D02*
D03*
X419687Y88190D02*
D03*
X418112Y85040D02*
D03*
X419687Y81890D02*
D03*
X418112Y78741D02*
D03*
X414962Y91339D02*
D03*
X416537Y88190D02*
D03*
X414962Y85040D02*
D03*
X416537Y81890D02*
D03*
X414962Y78741D02*
D03*
X411813Y91339D02*
D03*
X413388Y88190D02*
D03*
X411813Y85040D02*
D03*
X413388Y81890D02*
D03*
X411813Y78741D02*
D03*
X408663Y91339D02*
D03*
X410238Y88190D02*
D03*
X408663Y85040D02*
D03*
X410238Y81890D02*
D03*
X408663Y78741D02*
D03*
X407088Y88190D02*
D03*
Y81890D02*
D03*
X402364Y97638D02*
D03*
X400789Y100788D02*
D03*
X399214Y97638D02*
D03*
X400789Y94489D02*
D03*
X283555Y304126D02*
D03*
X268406Y350787D02*
D03*
X249606Y310630D02*
D03*
X278248Y182087D02*
D03*
X644685Y317913D02*
D03*
X617953Y244848D02*
D03*
X442360Y339148D02*
D03*
X647453Y366448D02*
D03*
X654353Y424048D02*
D03*
X462586Y307480D02*
D03*
X444754Y299448D02*
D03*
X475654Y242520D02*
D03*
M02*
